<svg version="1.1" xmlns="http://www.w3.org/2000/svg" viewBox="0 0 992.00390625 512.5078125" width="992.00390625" height="512.5078125">
  <!-- svg-source:excalidraw -->

  <defs>
    <style>
      @font-face {
        font-family: "Virgil";
        src: url("https://excalidraw.com/FG_Virgil.woff2");
      }
      @font-face {
        font-family: "Cascadia";
        src: url("https://excalidraw.com/Cascadia.woff2");
      }
    </style>
  </defs>
  <rect x="0" y="0" width="992.00390625" height="512.5078125" fill="#ffffff"></rect><g transform="translate(670.6640625 126.83203125) rotate(0 119.51171875 30.498046875)"><path d="M-0.3316536806855487 1.357766002877593 C50.86595533234237 0.04409369811087144, 103.52734926651033 1.53471173200025, 237.67463447211273 -0.25027258460698915 M-0.7933722143582816 -0.3131029761177304 C55.428471003713 0.19362941116059385, 110.64607842424321 0.6885287716804449, 239.29862858761655 0.01691643195940477 M239.04051167704165 0.18759997747838497 C239.03342655115975 17.03930644193497, 241.37539478951348 36.57322382863276, 240.3493143413216 62.39710118435323 M239.0205933554098 0.7102964865043759 C240.2175423691313 17.57315183564606, 239.93288074827598 37.0619579980812, 238.44752279948443 61.017585163004696 M240.38674679424986 60.13737304686068 C182.65544351586823 59.76443165178505, 123.45843475882918 58.45614764204425, 1.6474411776882245 62.5815611257878 M238.95589543912502 60.238956253509514 C180.67883487447116 62.33030428044384, 121.5797207510696 62.577905584320476, -0.7858505035227191 61.403989798572276 M1.0419413540512323 60.547195157036185 C-0.5034085027406036 41.4199094425112, 0.058313000993985065 20.24717351741492, 0.4123475644737482 0.42928471229970455 M-0.0022820131853222847 60.841035281307995 C-0.6175963071089428 48.152846642946315, -0.10280228526407881 37.56869719678434, 0.2780924839898944 -0.19770532380789518" stroke="#343a40" stroke-width="1" fill="none"></path></g><g transform="translate(669.7421875 42.17578125) rotate(0 138.96875 27.822265625)"><path d="M-0.6288877087929375 -0.9669006438815865 C60.92452005044404 2.9346477160028046, 125.00058393412498 0.7872722237167464, 277.34289457683434 -0.23227182483674455 M-0.539772249220016 0.6669928006113572 C86.74986852939314 -0.7689180637689705, 173.50010803454506 -2.1253869651617308, 278.4420512174706 -0.5117691730882552 M278.4455402586608 -0.3886741790920496 C275.9782327826085 17.190064279498984, 279.2799407060208 35.81502733220623, 277.1569994781165 56.10383941791952 M278.67520911525924 -0.04329731594771147 C277.997955155002 13.933833230645178, 277.3072151955236 29.872485879594024, 277.1846847934647 56.5016965912655 M277.85349076586715 57.15182912877071 C187.90629650863133 56.82102286564862, 97.59936235718402 54.69153427019017, 1.3719332465999077 54.405627874138204 M278.13146317969534 55.95716987966385 C187.67678179903754 54.51132427248163, 98.76988174284486 54.09070668458684, 0.5112646330322802 55.76757915119448 M-0.38089566491544247 57.42989011667669 C0.8727718109197667 43.3418585685813, 1.745307218462949 33.556765481789625, 1.9453897569328547 1.9089569058269262 M-0.1364922421053052 55.02751258481294 C-0.550737476618633 40.3610702068454, -0.879277652771816 26.76705081014006, 0.16466091107577085 0.3468385385349393" stroke="#343a40" stroke-width="1" fill="none"></path></g><g transform="translate(738.20703125 150.23828125) rotate(0 56.5 9.5)"><text x="0" y="15" font-family="Cascadia, Segoe UI Emoji" font-size="16px" fill="#343a40" text-anchor="start" style="white-space: pre;" direction="ltr">Node Runtime</text></g><g transform="translate(678.53515625 61.5625) rotate(0 126.5 9.5)"><text x="0" y="15" font-family="Cascadia, Segoe UI Emoji" font-size="16px" fill="#343a40" text-anchor="start" style="white-space: pre;" direction="ltr">Chrome V8 Engine / Web APIs</text></g><g transform="translate(303.046875 110.00390625) rotate(0 50.275390625 27.015625)"><path d="M0 0 C0 0, 0 0, 0 0 M0 0 C0 0, 0 0, 0 0 M0.1883812263934067 6.930317523379914 C1.1827990420729524 4.326343877549478, 2.0321512779783664 3.810913186268354, 4.35297968569631 -0.37823731416489537 M-0.48775399808305 6.006896820341341 C1.1740362269295748 4.964367093420901, 2.297924994084154 3.4010458736329863, 4.921218390720433 0.27229290528569755 M-0.28255599205385584 12.919886161803781 C3.555543823443487 7.102861407064184, 9.091252001722232 3.263852387461973, 10.388649898719919 -0.18212799326630824 M-0.5826445533801211 12.144942381649791 C3.435549183571792 8.646173807331106, 6.926768968095651 4.678076430159586, 10.70395638267411 -0.8228410405025124 M0.08324244892687993 18.356569030229622 C2.9666885541985 10.84799064172508, 10.63587302006445 8.127600774598445, 15.683408764659841 0.8624442319315841 M-0.7505447399383645 18.61517531601774 C5.136261511195221 11.752126034537511, 10.899796207642662 4.765017862628012, 15.652998339853664 0.9208284129318764 M0.40174949003376703 22.809990606918095 C6.494071173829764 15.850466547225825, 12.828991592268224 11.231217429470004, 21.821331870088244 -0.6920771753252026 M-0.42331554254523773 24.095802985779105 C5.642280291547809 17.70568324165305, 10.114106181264868 13.120346592298874, 21.513311471136177 0.8552450094535473 M0.8144778823991672 28.802356764439693 C5.566396953677827 22.866385734799202, 14.639200196570078 15.930887638648095, 28.149606697868915 -0.3985109353426157 M-0.3878904226655706 31.281902984481505 C7.042990064814842 23.197002823474634, 13.176734999878981 14.986333088554945, 26.25494674560836 0.470933495463127 M1.712777182357339 37.7880033327279 C9.943916277997007 28.091010666051474, 19.42265240266674 15.672976773685686, 31.815251208326615 -1.3130901734099503 M0.14267954126927052 37.604770370574045 C8.657106434567863 27.294700684779343, 16.482093696427423 17.93399540506351, 31.91173242632935 -0.06821596331305457 M1.1032313212425464 44.19978176671617 C12.587298301338812 28.721543196039057, 25.213299716888404 14.253249408402706, 35.893781620824086 1.5678059310745915 M0.16335108332792458 43.240817390005816 C10.678289489499075 29.802455220329897, 21.865241912579936 16.86959825938595, 37.132518472896265 0.6343923072424253 M-1.9230184815824813 47.27568788700633 C10.420752514688333 38.70595948598317, 18.12096208611753 26.33896310558736, 42.07518464568608 -1.1675244971782917 M0.6901616631074958 48.094452216894254 C10.201972621275353 36.183618580963255, 21.450091000143793 25.367696937748573, 43.21089877336823 -1.1108671521441096 M0.8396394842070194 53.338394818309055 C14.476373242721028 41.44472260090453, 28.237259513358026 24.234528259410496, 46.85294525227535 -1.7459293875668003 M0.1338926686671229 54.233861891965674 C13.940336448311909 39.823809051578166, 27.05421610327963 22.283161912263616, 46.61798891234237 0.6765857076447652 M4.804846448888355 52.603043409221215 C16.90741197387545 41.69827430336001, 27.190403932936594 29.78226283027805, 54.21001890091664 -1.6845793653802268 M6.7373784455184875 53.85505274233256 C23.47207265649159 34.92581658087735, 38.921002402112435 15.301482296373699, 53.03214840287781 -0.6713901976646177 M10.254533553890706 54.588643416904 C30.387471787880983 32.06460914604192, 46.05813533638064 14.42981704268366, 59.8078593109727 -0.19079111001677873 M11.579516687825144 54.84950156617173 C28.511032513678543 35.167111644165615, 44.44684028292845 15.66288260617899, 57.871758454571676 0.2847695560451591 M17.490015634538832 53.30341484106811 C36.1460491907564 32.21565659058186, 53.28215282042392 10.229455589287547, 63.67239069276829 -0.6372039967657557 M16.07011222114623 53.14574696670952 C31.437450667876213 38.19140698050997, 44.77858055724741 20.427325556191157, 64.32494420548309 0.773408259500421 M20.428605785195483 54.12793162731534 C33.28329815155241 39.929675066059644, 46.692883418601056 25.63305380007568, 70.38303551566615 1.0383965449746384 M20.890241567578865 53.74878305556333 C36.09659016513734 38.28989980744534, 52.39150661594913 20.409609364866554, 67.88235249020919 0.5680747118185892 M25.28958759118541 53.339945025356414 C40.057535845332545 39.59672413372563, 49.59281984737347 29.487964328744834, 73.75868673999103 -2.1420976100848748 M27.02197517768218 53.42113281095952 C38.47063700510796 42.15576096183345, 47.261834424916785 28.763870728228028, 74.36687407180908 -0.3314034212739898 M32.78324289687136 55.7145602307931 C49.37672881640215 34.00881848475139, 65.76746368123497 16.883656694512084, 81.0467355851057 -0.5969406413425276 M31.281155198553293 54.43927471951548 C43.21139314188051 44.11533403196224, 51.41263604457416 32.139616986291756, 78.4664214098799 1.0575070343400768 M36.79682403757808 54.049059743336116 C52.259562312330885 39.92067510320571, 65.74222668987925 24.202858966753528, 85.60904376133487 1.3402905759124053 M37.34711770575133 53.27471613445756 C56.704698470892346 33.048449493165776, 75.47886705688339 10.432054091450091, 85.76365089248077 0.38111811938713913 M42.583581607668314 54.76308000858725 C56.18399014300308 40.74350952906518, 69.33393781390674 22.66493184082615, 91.11097123804132 1.0208731122817056 M43.29547047137341 54.35041991740317 C59.093187316040584 36.494881581649246, 74.05985346636416 18.020284247871473, 89.2687406042088 0.7059473829846041 M49.44873669246684 53.423434776257224 C64.56702218419291 31.62031893859129, 85.03196263661822 12.627182150523488, 96.20734847554982 -0.9942386575239084 M48.627815195978684 54.72187779657865 C64.71308775583353 34.81957583149115, 82.68194662351414 16.952185684394323, 95.44911255812318 0.19979124085881494 M52.93850863633637 56.34429174194782 C68.25621054079318 37.768786124617854, 81.0091465591201 19.984252392421872, 98.73150419322306 -1.3342364129026478 M53.80452527666424 53.83353700860142 C63.46016008544431 43.23257775532942, 74.70519203091365 31.567353921619716, 100.76221046382094 0.8881516171271855 M58.87002824561119 52.86670548559252 C65.79070471438241 43.17548842966836, 75.74800941996031 32.42754848026755, 98.47670634047128 6.498751692861141 M58.618409009998736 54.95458323692057 C74.13717180822682 37.04284296576206, 87.9211421451764 21.7415635662364, 99.7806906984467 7.127695524520995 M64.80066070162553 53.18524621212479 C76.65130049832642 40.0922605542058, 91.03481687839687 23.942702325776427, 100.41090170555276 13.843259847918752 M65.00778250505078 55.1618193524852 C73.13402356533794 43.345601897826626, 81.90976517026134 34.47174032125493, 100.75091191549313 12.47610387970716 M67.49732847374214 56.17462849214645 C81.8050960146347 38.990346619875154, 94.63736299216059 27.42236836612764, 100.40062213283028 16.818143247871994 M68.8695425964175 54.32254415441276 C79.57498533648543 42.77755727557503, 88.3608582882522 32.702054936731614, 100.66059126205738 17.78798016930312 M74.96642452228578 55.66924420036817 C81.5457834060374 47.59051968251528, 84.8339522849387 40.287885509025884, 100.48936995762858 22.564434392431565 M75.43283004715802 53.53033530842954 C80.48286360834359 46.894769035669285, 86.17129925477457 40.55273216385869, 100.86093981369856 24.61295674653519 M78.64284006661917 56.063339157391766 C88.99332915782524 46.72198813079162, 95.08741332850818 37.59874127802796, 99.08664577431037 30.845519727199253 M79.79180731686945 53.861475988652984 C85.1037549787542 49.183371421169255, 90.01788370500216 41.27880187090315, 100.59944034251376 30.95212147302079 M86.07593681706712 53.835836487927956 C90.17266487991967 48.77701525379454, 91.34166152370383 48.02313664073613, 100.99786163920996 38.32667258210856 M84.93538079361096 54.05602823580943 C89.53178992679639 51.15668631448078, 92.81413698245944 46.22181659980354, 101.39351052007166 36.69380065720904 M89.35463156739334 53.44948392426337 C95.27434725379794 49.35971916948202, 96.36830556127424 47.63319662424048, 99.27409185269836 44.035348187162036 M90.28375462258319 55.14848099341358 C93.03040683416577 50.75256216587911, 96.94931039251743 46.843864088777515, 100.03402133012179 41.791152893526906 M96.17683615285468 54.646285187566924 C97.9960460433276 52.884205927143455, 99.01470220921325 51.198159275991905, 100.62006501256943 48.28588661114832 M95.85700206846495 54.43519761084792 C97.710311078534 52.16858570236926, 99.11891271860067 50.54619390653692, 100.85347509723611 48.72408355666471" stroke="#7950f2" stroke-width="0.5" fill="none"></path><path d="M-0.9381148610264063 0.25754339434206486 C32.550670917157916 -1.085755253117568, 66.8881104886772 -0.22029610900212004, 98.67027207277715 1.9415062759071589 M-0.20209395419806242 0.7227369053289294 C21.602912230143193 -1.0021488221099935, 44.85933919848103 -0.46426634506493425, 100.79565969575197 0.527454893104732 M101.06805582903326 1.3612045142799616 C98.72823073879205 22.162852853737423, 99.47994288221322 40.45730858150055, 100.06275524757802 52.52808708883822 M99.98629037011415 -0.5392629699781537 C99.9498119737595 18.16467650377599, 100.97172916788753 37.56262671208824, 100.42395967710763 54.227104912512004 M101.60325445793569 53.96547026373446 C70.0008836411518 53.64492341182431, 36.15622423489039 55.294100665070616, 1.633131107315421 54.90293122269213 M101.27113789785653 54.3669986827299 C66.66325369926089 53.93823116477517, 29.947769288568082 54.09124311264542, -0.9388931049033999 54.72218320798129 M1.3461309280246496 53.11727667786181 C1.4027897761916392 38.35270574277674, -0.987919802799297 20.001962703809838, 0.6987214293330908 -0.017884662374854088 M0.20228383410722017 54.474206189624965 C-0.3439494934506365 36.22997409688833, -0.10888418225717034 16.995609672303544, -0.26943063270300627 0.3139287931844592" stroke="#343a40" stroke-width="1" fill="none"></path></g><g stroke-opacity="0.4" fill-opacity="0.4" transform="translate(10 31.5078125) rotate(0 207.765625 87.8923083856979)"><path d="M0 0 C0 0, 0 0, 0 0 M0 0 C0 0, 0 0, 0 0 M0.09614229503554605 5.664861948092573 C1.4693082756766507 5.156272325379712, 3.235521977917954 2.9036437162731943, 5.35337500307197 0.10412772631619516 M-0.23810680766123032 6.326425671999447 C1.8706989422947915 4.255534231953421, 3.738697907801865 1.8188579257610706, 5.16619694005186 0.031847682580094905 M-0.9745120919216765 13.106989442228853 C4.523189042778279 6.406523807340158, 6.0122162043004215 4.515211625302957, 11.689423844170701 -0.9230071385309337 M-0.33698181201707256 11.331130717366516 C3.3874017167769632 8.955399105415097, 6.0909701145248505 4.196558766907572, 9.880862591368091 0.41675882666257635 M-0.6655431176116924 17.728486646805578 C4.666856119730627 13.578714614688021, 8.227858125989167 8.538839843459705, 17.358812884896476 2.294732174549716 M-0.17875880753158135 19.29391852384495 C3.191787157919185 13.589735354641114, 8.064568025001675 9.061733253755005, 16.44926913315751 -0.29170801705448124 M-1.4831767806597735 23.53397795902109 C5.443013503092011 17.276123774054106, 8.654969667221442 13.590078298905112, 20.362353861609364 0.9804755406617645 M0.8508209467119787 23.938275920874535 C5.068413842710296 19.346344671985143, 9.766686178918931 13.353841539941904, 21.478552312867606 -1.0040837727323648 M1.6515842779119865 28.76517456373965 C7.8545480110877595 20.689727764999397, 16.226031808726745 13.022681236129184, 24.502432626348348 -1.1381173046293913 M0.5442450456832901 30.393095652338317 C8.588630427729633 20.043312571465073, 19.48516497718819 9.044881494892635, 25.709979397852333 0.3520899642270745 M1.4788444972503463 37.623360533082234 C8.701141648073435 29.687845144049682, 13.1022267212266 22.172920308732635, 31.41935327225069 0.29763750557445334 M-0.19392284295526352 37.471081468091654 C6.244647540607822 28.041024349344433, 13.4353260904526 20.832742476885162, 32.19147777226458 -0.4806223240435834 M-0.2827760584979302 44.23755431416981 C6.632167939503704 31.845841715634393, 15.558701567506446 22.778323145225592, 37.17019940149163 -0.4695034659374038 M0.2859981359587067 41.53669493048989 C12.473215956452831 26.59714947438049, 25.33956362928584 11.279395115293482, 37.560605891795205 0.8421899779793343 M-1.3418187871576137 50.366137469791695 C12.838132933481267 32.58559757763146, 24.363938750397 22.182768060272352, 41.03980635720842 0.08711239773323598 M-0.870621061883945 49.5515341550567 C16.224752501987762 31.01474074177376, 30.92591381522136 14.009681708751195, 43.011775515597094 -0.9896430225715989 M1.3209266544085594 53.55138761684607 C9.840171963345545 42.50290716763358, 23.670977975021614 29.449072973341366, 45.854788991576314 0.2532104093756722 M-0.7115561773303298 53.57261674892466 C14.119646337294837 36.526023022589776, 29.923598654320806 21.066041725682588, 47.76652947436112 -0.12194508517270819 M-0.233549881624171 60.59465506812225 C13.127487636957538 45.726183226855895, 24.428968971804302 33.76723524440613, 54.79451389773256 0.47341193588811237 M0.992548120310417 61.57130645261745 C20.497684567648708 36.942612257226955, 39.26004033074056 14.689686140446305, 54.04076390224016 0.2073795223085888 M-0.7475658311090498 67.7108957707412 C17.531179149392994 47.17514976344445, 33.66124371196411 28.281753942721636, 59.705127177852404 0.826411040059849 M0.059341436200675446 67.93159607849041 C13.021665299567015 52.66295628503211, 25.25865838897125 38.20813868328828, 58.515006004925084 0.4872726653959596 M1.827576995100678 74.2303000468239 C17.680474931984996 52.422582462630864, 36.94362863253115 28.52944423921832, 61.9105266750731 0.4247978387890825 M0.6453405630028257 72.4954862513989 C18.44877918567833 51.390060202439585, 38.92414511558213 28.636005458401932, 63.30163629156877 0.6770957012219796 M-0.07408467581974776 78.29992133415965 C25.26303736054424 49.35260193921563, 52.79716766274208 20.885453814252052, 68.5263897415699 -1.109764855134891 M-1.0034976060922673 78.6083641493666 C16.446399752427855 62.834977481202124, 30.379302628480943 44.648295359814085, 69.4151663428621 1.0255561203103198 M-1.4782623757330668 87.03820912464664 C26.81289735975917 55.23731772100202, 49.841710283324815 24.08363854016703, 73.27114547048005 -0.24671817481385006 M0.7593871255682814 84.61728644202606 C17.778414826735936 66.61257159627877, 33.670661145697096 48.6817222528572, 73.73946104295793 -0.18571909520642294 M1.4436118725359606 92.01018560607419 C30.86504627447436 56.46190622681258, 60.580456483205275 19.600752414079494, 80.7800024639788 -0.07143055745852678 M-0.5485639738246633 91.68990593240098 C27.18365092694812 60.0479337140344, 56.02319095192355 27.67630527720771, 78.49801634754715 0.17674317019539387 M1.5292987581340896 99.38197860056326 C29.953266826077943 61.372628446373774, 61.39586550519576 29.122886405947256, 83.4159210652034 1.114625613829304 M-0.22786536160872117 97.3127544953467 C29.780522631460833 64.56804440108797, 58.20793123487148 31.765143914792503, 84.22118151578263 -0.15816447635162945 M-1.7799254047919248 101.62245030523482 C28.40584716738725 72.94134965664925, 56.0434425511674 42.444790013774416, 89.5836411263291 -0.7309493481610758 M-0.6464143076215123 103.33662181821856 C19.973159836262532 82.18626284437913, 39.1326707633164 58.65594547856913, 89.21643687835524 -0.047203294323836076 M1.1550542359331573 111.20482603287817 C24.439058724802283 80.7765054554429, 49.347248401924936 56.043805068296095, 96.54065424049318 0.008340923468551864 M-0.4889179811721718 109.02193414154024 C32.10424545063111 73.90542645450353, 62.42605821618621 37.55692358436289, 96.5356160694179 -1.1892150515886328 M-1.673895726553404 116.76122715039155 C24.10733210028902 89.30687113293386, 46.06850142467632 63.90636991395276, 98.71123150987083 0.083065491507476 M-0.4457302481078145 115.53703719744435 C33.915552631478334 75.12052326002552, 68.06905302653382 36.968592428737026, 101.4451837946614 0.6938046173776442 M0.3918708099236312 120.55784772056421 C28.46360857845362 86.76575787147726, 56.804796023306906 55.66224642009382, 104.49739577759934 -1.2223105271460994 M0.2574260972624245 122.77712285145452 C38.11223214819485 79.0644086126905, 74.59007046901301 36.51729238575918, 106.39345806323868 -0.399720430292426 M0.832692659511018 126.64948744051713 C33.50994691196236 90.37241391613907, 71.13163452995347 51.10254986400476, 112.59294939585395 -0.6142493197028855 M0.17062253510092518 127.8625120409261 C43.17895138440459 78.94794187462162, 87.42438784545936 29.485105578084685, 110.4808879558406 0.06797979592482051 M-0.4550757386444815 134.58118038237131 C30.313281213167574 100.23327799009067, 61.944860191877 63.11361114804761, 116.13838742878141 1.364392560958116 M0.37029773307007474 134.18403351571448 C22.50935179267581 106.61654905237492, 47.17898036085396 79.72394611213929, 115.77121682762953 -0.327695641615243 M0.43525859263235134 139.08982373391606 C30.724514347577106 108.15955825682815, 59.219989490433356 76.94458210103302, 122.31522056552848 -1.9640070630421462 M0.20983045936071676 139.44840257884331 C40.756508556560014 93.22527498622776, 81.33548925671491 44.77573109107067, 122.04205522126784 0.07166013194270704 M1.5756403714787979 144.25871073704954 C44.84375475502395 96.07407908326857, 87.06585324127487 45.38850576970775, 125.94029803327038 0.2897927460856451 M0.6307027856257577 145.17650402494516 C32.64444837712228 107.87845622863472, 64.1099087976233 71.13916438483433, 126.53545377994641 1.052840544622363 M1.3629651115503139 151.13790661606458 C44.65750230264529 103.3059158971481, 88.52141950876342 52.68575716635287, 131.71657367604686 -1.1385327318370093 M0.569872358390541 152.50941804066318 C44.87732309419668 102.53046823825346, 87.38182727373908 52.761145138407066, 133.19454697915688 0.02071529230940987 M1.2492488726948972 159.12873351378914 C27.647419332256753 125.41624876551201, 58.897976802115885 89.69941531708353, 136.23908740225704 -0.6858220016966531 M0.4894530710238485 159.65732305060092 C40.00852972724734 113.70344410269294, 78.27082427770283 69.08679064170825, 137.5097751163827 -0.08781344136639074 M-1.0456085217422273 163.49817334566666 C38.911138199526945 120.6497284929217, 78.649128158783 75.03221421085858, 142.94345851955296 0.017611848546359388 M0.0015623244680799675 164.39218756340819 C29.54584767413639 129.83120699056448, 57.55015035612994 96.82951782680493, 143.65318276141772 -0.36511709766700556 M-1.093475125036273 170.53565922632353 C45.58796174888585 121.31431338838915, 89.08947344756585 70.20897266473978, 148.87873761665165 -0.16439366159876195 M0.13194257836000875 170.16168546825062 C56.598361357479874 104.4688038965148, 114.55868032224235 37.73819963599427, 148.09421338571514 0.2837924023192411 M-1.1694949885628916 176.0986320385576 C55.98533336676267 108.63664643495292, 115.89982175819986 43.26992047075561, 155.01005423416962 -1.4383729944513142 M0.6417627278297213 177.05876722637151 C55.847875975574475 113.79853966562737, 112.19513075601594 50.237364363704465, 154.30012622122146 -0.23429961541823183 M5.685713593665976 174.89262846668294 C65.73546221432397 107.54531559299969, 125.89496603256677 38.835880895312584, 157.16378632538994 0.5355727412403387 M6.567464357890758 176.76501636116316 C54.45616770604318 120.6344861575682, 102.45595989481836 65.36952654126006, 158.61611245150448 0.3322336155437601 M11.30498446517806 177.43175286627965 C59.66286147453518 120.94482709720384, 105.89479191286826 68.75435942269235, 166.01427728227856 1.5114395700794723 M10.733345197205711 176.70026457298496 C58.982085107429896 122.62773930159396, 106.63826509919659 66.7438393316651, 164.63968849554968 -0.19958061922824757 M18.130358059175236 175.67549796169473 C72.020883119005 111.29943791552722, 129.59570638964598 47.098351975939266, 167.7615715201106 -0.7527395990139834 M17.167939650971313 176.89506275023754 C68.19758187328388 116.40381169629656, 120.54441967565705 55.30526910279198, 169.278106098241 0.7915549336770036 M22.261664284827855 175.832789278337 C74.56158767049395 112.81159440980402, 130.75620114969848 50.08877432370636, 174.58677952217522 0.4962453196291938 M20.884180574423223 176.0557787362442 C71.90839326945684 120.07267324673855, 121.07653644612408 62.113429051489135, 175.3554628233737 0.28467747217201705 M26.79675607939641 174.96267095551022 C76.05727735941888 117.1375379258939, 129.1351278624851 58.208689746749485, 178.50415394219945 1.2572575493791553 M27.245114889156852 176.32938170182416 C84.50803240301852 109.40987043042358, 143.1721346362713 43.671464203229675, 179.3746130975044 0.5428744756505791 M32.814379467456746 174.99077925578433 C87.09987044243996 111.43298986900399, 143.5929484268253 46.15156716674774, 184.96425163217992 0.5095662540025097 M32.97172936563454 175.6426973959344 C90.01244956831069 109.20888884729958, 147.738888516282 42.69657403689212, 185.8147662202209 0.3457303791926898 M39.204229412142 176.17322121531694 C76.99884969289734 131.51602880240748, 115.51228958325709 85.43451456033237, 190.322732999469 0.7295803036072552 M37.06283678104112 175.83063254482923 C78.87307099860091 130.64385931974314, 118.48314664443703 84.93754260528095, 191.51295053288848 0.8571535953707367 M43.78707967263511 177.6196919171764 C75.05789479834081 137.81865247356757, 111.37504514936569 96.28121921001811, 195.19037935311297 1.3533415105041213 M42.06114664574206 176.67676836309073 C72.67859429662035 140.38194103208355, 104.87264085115041 103.42103813154192, 196.58398687036853 0.23084535349394114 M49.9070975152245 177.5243784083024 C92.53368556519733 125.57375980477705, 136.93291527230843 73.77519329504636, 202.16811059973168 -0.6990553191421699 M48.086393185217865 175.59376065815906 C90.22116615109948 129.05331153837363, 131.40713375263888 80.06768062166906, 200.62969583798684 -0.5197539032562595 M54.0272236224332 177.02539951856784 C108.14637269509815 114.72560105241207, 161.9023211900758 50.02868601854657, 205.54887148829468 -0.6754670360612838 M54.1146408583981 176.85558557999832 C88.95638050648286 132.9055861393923, 125.63585869310143 90.5482647410701, 206.89867572684398 0.46399837798592736 M59.084008746456426 177.101345701654 C107.65515712800055 118.2874448237915, 157.63040877826464 64.28117720065083, 212.7006303508 1.0109489983183517 M58.757665110280854 176.09096707071976 C92.49598525488138 138.00117329225722, 125.82653953434533 99.55253670534684, 211.73504839639332 -0.0724361663241879 M65.46559590142137 175.6583390535134 C97.68787229975838 134.30519602687053, 133.56793577489333 92.96099948464503, 216.87685430354531 -0.9786355733890035 M64.908903816005 176.2617087201924 C109.6976647749434 124.78837597153858, 154.0344983319669 74.23620279135476, 217.1934549114246 -0.6840342331711811 M70.84800116365025 174.54723896255936 C128.86223022027917 107.82580272717021, 188.49703793679006 40.86435454820361, 221.9801167604865 0.4724994731763343 M70.4099139148238 175.53679966141772 C120.5205648942979 117.35314679867989, 171.39620015000307 57.09436025630189, 222.16846794170166 0.4994719100732158 M74.6832789566699 176.68048425306765 C116.88372234678587 131.7402633943953, 153.57701412939065 84.75451244456707, 228.87826592718528 -1.8361287516743792 M74.37125829971511 176.519360388458 C112.68648338951891 131.55752883101633, 152.45493543920713 87.11495972420082, 228.25871491463775 0.3940493654327436 M80.75875294425838 176.88704237542424 C116.34400689935339 135.80238561672851, 149.75365732575403 95.81732252595494, 233.15591327078346 1.4582509136593214 M79.0083394443038 176.55772926842562 C142.04893324592186 106.68080778155274, 203.34982498131367 35.98270777873159, 232.58450758316863 0.1956808585858273 M84.71668012743292 175.5309914528209 C129.45038734041938 126.91260771740427, 176.59750983974752 72.72749449926695, 237.78037790861367 0.15445165594885085 M85.73715609566992 176.5786526203626 C115.87101873831736 141.24617169246935, 146.74359922463427 105.13646313158804, 238.05437384292438 0.7480175672450129 M90.28703524512306 176.92158871215045 C151.89012805219207 107.9002493477378, 213.24325331456745 37.31481915924154, 244.01633566557666 -1.6710455256474777 M90.44189781659502 177.25675703425517 C123.53421431767784 140.27006610330807, 156.773731628385 102.30820769194831, 244.4106281313349 -0.437021309040259 M96.63188736871122 175.11019249530582 C145.4742910766341 119.76679567141362, 198.20467342357904 59.37488234025578, 247.39230614277525 -0.7473318317542017 M96.27045291463546 176.92989980474337 C139.81132571565922 122.39416036512335, 185.56789737520316 71.02953574917576, 248.55145846183498 0.49728870002059034 M101.16651803836139 176.34333921768467 C147.30328317156216 124.87060238883866, 193.84425031107128 70.9042367309938, 255.43921513799742 1.3347257951623004 M100.5479742311515 176.594158189338 C149.937230594634 121.61834883582156, 197.23676706952284 65.75716493990642, 253.9513892127333 -0.15745902916115728 M107.8217546857952 177.34613675300074 C136.06740461003926 139.08511004379514, 169.75949295350551 105.22100075670616, 260.11612090039876 0.28952751059644244 M106.54460582440915 175.38552558718328 C150.95044999753296 124.56078272315123, 194.60241999490066 73.5660920194689, 259.26541659147557 -0.2255477203166394 M112.9693733897937 177.64226070433156 C171.93876035544884 107.6682512217477, 228.70278879044375 41.505248274981504, 266.3247168351161 1.198822307143372 M112.08027350975068 177.2680487478342 C152.96883778296208 127.9215461023382, 197.2109385138262 76.97763422570023, 265.0343890585161 0.44492045300831706 M117.07865218649732 174.73930644309308 C162.88621703228276 123.94393062843854, 208.617553623536 69.49566259865207, 271.11346353929673 0.45245265018834013 M117.91268015858468 176.3719246715885 C176.69936774971242 106.15091425627652, 238.25699156829833 36.681211652116104, 270.72414794044 -0.07691576486036938 M120.7613740277403 176.4301315218958 C175.43913056324425 115.63402640775664, 225.74716242825193 58.2679863963843, 275.28312056650293 1.1622773788503382 M121.40184644291988 177.19343665515396 C155.4628997598096 139.37611717679167, 187.32967196522696 100.16062942140046, 276.3615260685859 -0.20757557649676492 M126.28437007863013 175.7125796827704 C164.18026910610536 133.62334020533726, 202.18161013147193 92.77568692891, 279.48036511728156 1.8666576542089204 M128.28184960075583 176.5655362118653 C160.66347822890287 136.93521814169517, 194.76428482536602 98.71423498143037, 281.2771149673218 0.029107345295579207 M133.65455494302148 176.61999195768206 C175.46189941975476 125.4015061150516, 220.28506396661507 75.84430964976958, 285.69463760422826 -1.5687612836619986 M132.8212373899364 177.0919469879574 C170.7535478920462 132.20727421098195, 209.36506594934673 87.62290578129625, 285.7255128115947 -0.46437130039113333 M138.72017947000606 175.8822640892202 C196.5838839946859 110.28340200794587, 255.32679924043467 45.19200220257737, 289.9371855921658 -0.23442671015428845 M138.0281833845163 175.87744861191993 C178.18299931662565 128.66593980994276, 219.60217810753855 80.94349844439739, 291.32019088071485 -0.5442999609425152 M142.7617069889576 175.24669383649507 C178.1393365339472 140.06661630070784, 208.58487454106185 101.9780572071515, 297.2763826828624 -0.6435812368390369 M144.25633667882764 176.2753079541547 C181.77564581673752 130.29564312510067, 222.28732285883746 84.41423336405894, 297.59960122494493 0.33686362986028284 M150.6171363684377 176.64742797962992 C199.26786253002658 120.46436835731292, 248.91885321506854 62.11975878902427, 300.99903942176206 1.0801782242862135 M149.1516766934599 176.60842992565864 C181.30508223778062 140.62063411293752, 212.01155750313816 105.59004007495858, 302.45069003921293 0.3782051953315974 M153.24188328136893 177.64635092063952 C201.5079191184747 120.5169189379381, 247.71935193518988 65.73409095360064, 307.76897959947576 0.8804331003739396 M154.82410580637094 176.86186489290603 C207.0580750699132 115.64095433537115, 258.5097857740384 53.85327807431782, 307.11482941478914 -0.6596943059573318 M159.6057776817375 176.74020437118713 C197.9909409902057 133.64320946334863, 235.82608068001826 90.75344752368345, 313.4254915638826 -0.9100889752820733 M159.36146346118036 175.84420145698766 C219.39402469453003 108.33457309580874, 278.41867421344097 40.49973858798071, 313.2425199514097 0.17940374302416712 M165.74773759857575 175.53046610992004 C205.95929416161158 129.68429404287826, 244.82201180395498 81.99919555451994, 317.99637801363843 -1.029171553468382 M163.99727463809356 176.18685507462152 C216.9670504053126 116.21174642640848, 270.1197697898328 55.36493182108468, 317.76938045602947 -0.551691696808821 M169.78593881771795 177.2956085810793 C215.647093532764 122.48188156854201, 261.516278575921 68.13919874772047, 321.7708614763401 -1.2282418416716494 M169.6805427712714 176.4400425598133 C222.36637912901023 113.97500672655856, 276.2379869832061 51.87790359677653, 323.4710292758989 0.7441802610414439 M174.73891878139844 175.6582266416414 C231.94286376882988 113.49425856635915, 283.898574277405 51.661996198074725, 330.17924784742087 0.42632185768868625 M175.82085540827293 176.07873850096135 C222.9172525493961 119.7822680788595, 272.9227283625482 63.26977115932926, 328.7790403923183 0.04507099959097166 M179.89717928419154 176.78172062649395 C218.17978040426075 133.25984959913043, 253.81937389156843 89.67060625515614, 332.973554316947 1.590801192305014 M180.22093085732678 176.03618583804177 C232.72257485608125 117.7535651634197, 281.9561716656077 60.10110519260352, 333.26803822127437 0.854796578289706 M187.0347323331573 177.91063129060822 C237.6452978637645 115.75946512954329, 287.8904601994877 57.27585848017119, 339.50195128539343 0.9509279273998317 M186.2626007199364 176.95607830483567 C227.79999778181886 126.46177338733688, 271.05434625529705 77.35378193955208, 339.29371223605796 -0.4734521432227977 M191.76847868897084 176.0695028246185 C231.15145262695904 132.37972573865804, 266.93287152990166 87.19213169370967, 344.38685134351584 0.43039919383533143 M191.02863070294032 176.3524827455793 C241.05047879139343 121.80206487384442, 287.37016437099214 66.9253966363684, 343.9668081461298 0.41573977367511833 M196.51485078976503 176.9785954990858 C254.5781501977358 110.57777741375882, 312.1804717483436 43.54528572727719, 348.6342641637009 1.0895359849469153 M195.8610502179123 176.985751596593 C233.67130922011066 131.79233453216895, 273.11070643616017 88.497874624119, 350.272827612881 0.27147455723579506 M201.2132581850649 177.4957572588318 C233.2504514232637 137.19918986689376, 268.07079565310966 96.27826672864016, 355.607528457332 1.5582719108341265 M202.27122799449947 176.3388604754997 C261.3815999968283 106.29849711978014, 322.7537230658191 36.864586135875214, 355.5662584732435 -0.3905220241887823 M206.04383698540119 177.53757435225185 C254.55608120609588 120.23244879590716, 305.13990686331454 61.039896702343874, 358.55465284636097 1.5177099700343617 M207.2030077377262 176.29210863354334 C237.956685713552 141.2478690353476, 270.3096454818899 104.9746256781299, 359.5108625949446 -0.28082494784876333 M212.47882905259675 176.7830619867766 C261.38007203350645 115.16756814170837, 315.0922121667759 57.8778317520817, 366.7886513046811 -0.7056760051740274 M212.64304818366458 176.7584177628953 C250.94570888663685 129.72795195890876, 290.5918505907752 83.31904825538037, 365.89009953791754 -0.2617942476170231 M219.05025807637432 175.6956500135967 C251.46072222633256 137.598748271245, 285.07461308997154 102.11484386359615, 369.6702745970143 -0.8628573468556742 M217.31821150733268 176.12769660331844 C271.70964979792564 115.82042141452312, 324.6799579329393 54.88120609323133, 370.3713375842227 0.8060573912195672 M222.49136771787337 176.00295885159574 C263.9796779521327 128.05815704840697, 306.76350307761703 78.29291794625794, 376.94918551940384 1.3192777726258018 M223.02409135381575 177.11661182660464 C259.9926031661203 133.27429729937086, 297.30925158787267 90.80369393999085, 376.4940046073569 0.6926235557079709 M227.68555122049688 177.56523685030768 C287.06682062163054 107.76766232597438, 345.6087025219674 40.26773306505129, 382.7538970234733 -0.7451132485358058 M228.66214813532534 176.33098933482447 C289.7033723648195 106.66969700048114, 349.46895932838817 38.00364416161266, 381.738422364309 -0.34595057165307697 M231.91670456546504 175.49762784684404 C265.1787453000667 138.99029440185757, 297.90925919449916 101.59857880082888, 385.6613031673205 0.0034664565383022983 M233.1967376173553 176.86352524016297 C279.765981237955 126.34423197742402, 323.12023957054674 75.42615272801343, 386.7584673033389 0.11103059994635603 M238.17517847558136 177.29714832957242 C296.79116388200305 111.38685191662415, 356.4394791247439 44.34887926732715, 393.21801183355046 1.13118128218158 M239.821927780298 176.17274670696776 C288.08856393803916 117.98447997969416, 338.6919950855711 60.725287605222036, 391.585303868797 0.6895458674396675 M242.81739024244206 176.32078570357604 C275.82837595065655 143.42569899258478, 306.86430092715045 105.14572352106225, 398.11041057675146 1.0783019963681608 M243.72078685543548 176.99090350835533 C277.3435273847762 137.14598091134133, 309.87760784659275 99.11590300994193, 398.10635521639085 -0.7183539694917114 M248.8494171994402 175.66992821857835 C308.247666764985 106.26105183591635, 370.90588610840655 36.111437215650064, 402.94440923505823 -0.3306092375161015 M249.74113215084438 175.20098424865446 C284.62109100210125 135.54056275084343, 321.93424625309103 93.99904055147883, 402.8889733812806 0.5889858624039657 M253.5928788583748 175.17786909034652 C311.63434309741706 110.16309340399178, 372.57098353228105 39.76159166784269, 409.915697938517 -1.6628089205799341 M255.09015591795875 175.81564106721703 C290.80520437667565 137.78579156609558, 324.5668005175526 97.98671960707674, 408.0997903057902 0.6127005240539246 M261.972934449886 175.020032984513 C300.04894185572016 129.7288597716274, 340.3012961575455 86.02025590981236, 411.83448193580915 0.6254580095586779 M260.25472330555823 175.7758819387909 C300.22864372505205 133.31228300667811, 339.08091785815986 89.0939378343234, 412.6456217353536 0.9533970171460959 M264.0340188591542 176.23172320947452 C301.2577378321352 134.7337537893731, 338.04199020433407 93.63451792017833, 417.624386621444 0.44073790955023084 M265.2022441419153 176.57028897065533 C297.53197616917765 141.96404760891002, 328.31314249443056 107.33194559300809, 418.40757157731974 1.5532101866321977 M271.93267990837063 177.5829599927752 C311.07287710569454 130.90561622945472, 348.816971962398 85.84408628413132, 416.298481045239 6.156380000544658 M271.88065660884894 175.4549599812119 C306.68324296329445 135.47480692237662, 342.2478869669157 94.15356217346336, 417.9974881608249 8.262088448319515 M277.074576237656 175.91046376504704 C314.05661193083176 132.9196200671071, 350.81076331328893 91.0005713579387, 417.89631251789604 12.364661319597628 M275.23644089530535 176.43992915751224 C305.66662574308765 140.06240944678174, 334.8126740048847 106.58363974175377, 416.20371816090784 14.02781514098227 M280.2933374201791 176.93672020142174 C323.67348812133326 128.22431308329135, 365.97765122797045 77.48116774861386, 416.6093999000288 18.77758055725789 M281.1792211165515 176.3585317912872 C321.6917915541202 128.96575107515582, 363.3832858846026 82.43616457110106, 417.55369231268116 19.93863490166047 M286.7576639820599 174.5035047855524 C329.86371693372246 128.27092734104696, 370.90305119033826 79.56900359035451, 418.64438252861 27.6549670848583 M287.3717642902174 175.7394798564089 C312.23755889510244 144.05438854819363, 340.2578047877138 113.97534268270721, 416.5133541157687 26.78245082437593 M291.042048693514 176.7971678446576 C341.26269509123347 116.92158670988192, 392.6530134606949 61.135936381696226, 417.4688177284769 31.766540168924394 M291.96986937697096 175.62937899544536 C322.8889948459324 139.56504659073363, 354.17781675660956 102.95320603450935, 418.06099550789065 30.780130250519278 M297.111835939088 175.6366533837659 C334.08938185714754 136.19517728393376, 370.773523200755 91.50156735450491, 416.29404852887 39.662644229087306 M298.1825024022023 175.77749437516607 C334.23387658351317 131.6040174231755, 373.8284285436898 85.71615406509044, 417.9958393990373 38.80973807554997 M302.144439186919 175.18728589477539 C335.0766428279206 139.16733798872173, 367.4260952542437 101.86934809739421, 416.88556999393586 44.17542271246796 M302.4296610625642 175.1324451652035 C345.3180605995164 129.37523103432687, 387.10131449574584 79.98780495277924, 417.0691291443709 44.759173361823315 M306.6715514141824 175.56096256547542 C337.09480139688594 143.80743522860223, 366.4919606454986 113.03291856102663, 419.0498928128213 52.00225344118738 M308.75222412624765 175.71344666858138 C349.0408468078421 129.69529429660005, 388.92401640237733 81.5158835498179, 417.74597528655386 50.59934298419469 M312.7340583100249 174.970686217987 C339.74395812576705 144.80692142900867, 368.5678183874466 114.12415975327194, 418.22886621270175 55.40737735303486 M312.12311463591504 176.1085932601551 C337.219493523045 147.74800216988012, 361.2373268081919 118.33286061786183, 417.9559284687772 56.42954037068779 M317.4763611885933 177.4321940494311 C344.4636341073468 146.4776745236706, 370.9629868139576 116.59572979803878, 415.65459116171417 62.37643143990857 M318.19787282172865 175.52023712727996 C354.0772591802812 136.27911378484856, 389.415662326389 95.70573126044806, 418.40414263769355 61.97572844093514 M324.7406999020627 178.46558637259696 C359.21076665253037 135.2604417757138, 394.6492131914636 94.01092708938684, 416.66344813703404 68.09162538959782 M324.0652290143794 176.8103670104796 C350.2750541286981 145.19701283274867, 377.1471118625994 113.66191546609221, 417.04165281149403 68.40946624796044 M329.2220660435705 177.24985955438282 C357.568151761307 143.64974882296352, 387.1305496998341 109.76145905109665, 416.8510103278079 73.0862745242236 M328.55826684802014 176.99889114188667 C360.9183144780902 138.67428076618367, 390.98035457161467 103.26026806376936, 416.3765382828408 75.84619191661903 M332.782230715292 178.098082657578 C352.2970915596405 156.34144397965295, 369.8283428722225 133.97985595259965, 415.66636654818274 78.94642854090691 M333.7247010283418 176.08256388702483 C357.4726590430057 148.52476179848867, 382.6149319539316 120.93472281756627, 417.2244955318964 81.39060138426632 M341.2607167603642 177.85722079908066 C365.15123942150217 144.1712376508515, 395.65469566567856 117.0626443502536, 416.00644415033355 86.01250025243698 M339.7940995644972 176.77855910302662 C357.29479012711084 155.22820828840713, 376.34528522797604 134.23607449375712, 417.4594111393516 86.18202714142589 M344.7888265309625 175.38331179168014 C367.8392777600053 152.9705154984439, 385.9471576955121 126.28709201766509, 416.3709222273977 93.53379852571206 M344.6481615371772 177.34339678041576 C362.06243967472744 156.65935377080828, 376.9525401958706 137.94671395760574, 418.32452498935925 91.89272117023037 M350.6006141202243 174.94128950227463 C370.201360294883 152.20053844033768, 389.08560185862217 130.49601093883373, 419.1762593815506 97.14370492352145 M350.7879393305348 175.3165164013248 C374.32703345242686 150.7512196801598, 395.43470662667016 123.73528312304785, 417.9027080376104 99.54678158620345 M355.34691313032454 175.68016049365337 C371.1785416125456 159.1955500335724, 386.53661049318373 137.1337411575951, 418.9106069269387 105.0142066429861 M354.8041164002607 176.3392035812774 C369.38647106138654 160.55388786286142, 382.4769434126297 146.33990846275807, 417.4276255142672 106.01843557670043 M361.90630890440076 175.03282738271463 C375.20788832638027 158.9511783031424, 388.6986149377446 143.55469671582125, 417.7281318027091 111.557525256227 M360.34422950550794 175.89816342740613 C372.8048110384968 162.2088796281708, 383.8879390751561 150.0600436775, 418.0343098369923 111.07741814157669 M367.699166294628 178.1912654822477 C383.4386267714216 153.3585061214013, 404.11863631225185 132.8582273939026, 419.04333948603664 117.12774545103343 M365.58294647696727 176.14444718023472 C378.0835147955306 163.02983872143503, 389.7527659691834 148.7111223844696, 416.50973352397625 117.43435083385589 M373.4986018941437 177.50634615915078 C389.8068237831215 155.48809909938615, 406.3471816067063 133.4854269609396, 417.68598719505894 122.17534796930366 M372.1892884487917 175.63702557189572 C383.04943731449083 163.14105271483731, 393.64819873740925 152.25140079683027, 418.6039723968722 122.23902469817065 M375.74451180512284 177.96301347621318 C391.74967904469327 161.16906368964297, 405.13287070175744 143.9301563412845, 418.21511165695097 130.72238624882692 M376.79690762667184 176.1617154679128 C392.0354232600619 158.41949222941682, 405.8204773692953 142.9228351142683, 417.50048334887083 128.8993269125446 M383.3545438707029 176.58010755033297 C393.2000886922076 162.27631492264692, 406.39633839816014 148.20781632646208, 417.0739423108596 136.51701936172415 M381.97130951976084 176.47475322541845 C389.6000416015467 166.26724350332856, 398.0225018422529 157.3016544559527, 417.1272675476346 136.57952372683306 M386.03812544305913 175.88554119429966 C396.55241667912907 165.71539635871275, 403.87076286217155 156.11652714925643, 416.1842242209317 142.73514075511645 M387.6801307087495 177.12172133493652 C397.4839538814727 164.58765789019364, 407.7887097798004 152.88600278648227, 417.90744334832596 142.24563920339148 M391.1074356153286 175.31612327501134 C398.1475092593704 168.3946820409039, 407.33973205025393 159.23811564653866, 418.5405409893423 147.68200699179303 M392.2603610777906 176.18112177859948 C399.83255275471817 168.5730000827892, 405.70889613309106 161.50086688300308, 417.5098192066356 147.71083395774346 M399.79143298968677 176.69273535525724 C407.41297180453324 167.8598935051453, 411.6113685524075 157.56818913761265, 416.36522795922883 152.94677068865207 M397.8886215825752 176.08330267193094 C401.71134368626826 171.73055771573564, 406.4189296288488 167.5071134612787, 417.1600568817166 154.13368809702155 M404.04682790927075 175.62015505193574 C406.5423339627043 171.66752955029264, 409.37348399353 167.8374811368495, 415.42239998276636 160.87765715848295 M403.548386482256 175.35403162206364 C405.90678752317535 172.63061183499593, 409.9196541706447 170.01344812982973, 417.11094920425967 160.8371278617495 M407.46456247192714 175.42458347725872 C412.36656277164894 172.1944038014913, 414.6532593368517 169.70940825751305, 415.8451214124338 166.643926923116 M408.5228605447514 175.73085677685404 C411.0976853934987 173.6098258805671, 412.19795458312933 171.21784917146576, 417.0025885383954 166.03956421343543 M414.435559407215 175.9769032176929 C414.86653047466757 175.52007414436997, 416.08415338419167 174.6887169535765, 417.2082616505801 172.18640278702944 M413.96823004690316 176.02135160433784 C414.8646547114615 174.91605634098195, 415.7215715758466 174.4381687648473, 417.70812873245507 172.2703119742625" stroke="#ced4da" stroke-width="0.5" fill="none"></path><path d="M0.8319570620593414 0.7227123164819328 C87.20879720528607 0.21229717538441478, 173.94263949537742 0.18673986937228276, 415.3051219719629 0.7607929670467636 M-0.00014925071847547074 0.3656897434705496 C134.12803042922556 -0.2764862872256293, 269.0226520486933 0.3663462508676822, 415.6394011513044 0.3904729377504084 M415.88138807751244 1.5151396002620459 C416.99720176255636 48.86398872054066, 415.61148407256536 95.53780999352924, 413.7942423317582 176.68746306864503 M416.2324140472338 -0.11027597915381193 C416.4577359536535 63.483028332228145, 415.7660585323221 127.62748487291918, 415.6853664023802 175.1374760645065 M415.1691029166405 175.18945202307881 C296.9183111503363 177.19524607034558, 176.2507238948143 177.3922157605455, -0.8987362871616529 176.45485009123487 M415.2453442448962 175.24996417892208 C287.2283832461361 174.71172454135257, 159.77373860829792 175.0570723077326, -0.30873272873286517 175.36975260725643 M-0.5366120245307684 176.98558064667466 C-0.7177431479678253 109.58581988223033, -2.122110892890463 40.34196388768345, 0.5976358149200678 0.4784220065921545 M-0.5323150353506207 176.40554536158177 C-0.8280966052199761 105.88067641790461, -0.8696714111949364 37.51200120744278, 0.38852329086512327 0.4077733503654599" stroke="#343a40" stroke-width="1" fill="none"></path></g><g transform="translate(335.787109375 127.76953125) rotate(0 14 9.5)"><text x="14" y="15" font-family="Cascadia, Segoe UI Emoji" font-size="16px" fill="#343a40" text-anchor="middle" style="white-space: pre;" direction="ltr">App</text></g><g transform="translate(26.108067731803658 52.22477789567222) rotate(0 83.5 9)"><text x="0" y="14" font-family="Cascadia, Segoe UI Emoji" font-size="14.999261877937919px" fill="#343a40" text-anchor="start" style="white-space: pre;" direction="ltr">Freshworks' Product</text></g><g><g stroke-opacity="0.4" fill-opacity="0.4" transform="translate(732.728028883156 65.234375) rotate(0 -161.00756444731906 -6.405996456704742)"><path d="M0 -13.691938138224963 C-37.60444484504004 -22.348467976033646, -75.20888969008008 -31.00499781384233, -149.23974763315596 -48.046875 M-149.23974763315596 -48.046875 C-204.94432634214235 -21.195970902548563, -260.64890505112874 5.654933194902874, -322.0151288946381 35.23488208659052" stroke="#343a40" stroke-width="1.5" fill="none" stroke-dasharray="12 8"></path></g><g stroke-opacity="0.4" fill-opacity="0.4" transform="translate(732.728028883156 65.234375) rotate(0 -161.00756444731906 -6.405996456704742)"><path d="M-3.3649870520016174 0.9257519029498571 C-2.517099863715082 -2.7575169824038945, -1.669212675428547 -6.440785867757646, 0 -13.691938138224963" stroke="#343a40" stroke-width="1.5" fill="none"></path></g><g stroke-opacity="0.4" fill-opacity="0.4" transform="translate(732.728028883156 65.234375) rotate(0 -161.00756444731906 -6.405996456704742)"><path d="M3.3649870520016156 -28.30962817939978 C2.5170998637150808 -24.62635929404603, 1.6692126754285461 -20.943090408692278, 0 -13.691938138224963" stroke="#343a40" stroke-width="1.5" fill="none"></path></g><g stroke-opacity="0.4" fill-opacity="0.4" transform="translate(732.728028883156 65.234375) rotate(0 -161.00756444731906 -6.405996456704742)"><path d="M-301.0758460080557 13.751250359257334 C-306.35198806063204 19.164553833526742, -311.62813011320844 24.57785730779615, -322.0151288946381 35.23488208659052" stroke="#343a40" stroke-width="1.5" fill="none"></path></g><g stroke-opacity="0.4" fill-opacity="0.4" transform="translate(732.728028883156 65.234375) rotate(0 -161.00756444731906 -6.405996456704742)"><path d="M-292.16529531107693 32.236976979068935 C-299.6866590122929 32.992369286107476, -307.20802271350885 33.747761593146016, -322.0151288946381 35.23488208659052" stroke="#343a40" stroke-width="1.5" fill="none"></path></g></g><g><g stroke-opacity="0.4" fill-opacity="0.4" transform="translate(696.9358120638585 195.32421875) rotate(0 -144.4975019913079 16.483073507745814)"><path d="M0 -8.80960902934844 C-33.87626176661684 7.305640547709338, -67.75252353323368 23.420890124767116, -134.20143706385852 55.03125 M-134.20143706385852 55.03125 C-168.47537517699786 37.96080137905288, -202.7493132901372 20.89035275810577, -288.9950039826158 -22.06510298450837" stroke="#343a40" stroke-width="1.5" fill="none" stroke-dasharray="12 8"></path></g><g stroke-opacity="0.4" fill-opacity="0.4" transform="translate(696.9358120638585 195.32421875) rotate(0 -144.4975019913079 16.483073507745814)"><path d="M6.443689184507047 4.735828198495737 C4.817118662365707 1.3165743714642306, 3.1905481402243674 -2.1026794555672756, 0 -8.80960902934844" stroke="#343a40" stroke-width="1.5" fill="none"></path></g><g stroke-opacity="0.4" fill-opacity="0.4" transform="translate(696.9358120638585 195.32421875) rotate(0 -144.4975019913079 16.483073507745814)"><path d="M-6.443689184507049 -22.35504625719262 C-4.817118662365709 -18.93579243016111, -3.1905481402243683 -15.516538603129606, 0 -8.80960902934844" stroke="#343a40" stroke-width="1.5" fill="none"></path></g><g stroke-opacity="0.4" fill-opacity="0.4" transform="translate(696.9358120638585 195.32421875) rotate(0 -144.4975019913079 16.483073507745814)"><path d="M-259.1864295728013 -18.68148189837148 C-266.71096203452186 -19.535604150270128, -274.2354944962424 -20.38972640216878, -288.9950039826158 -22.06510298450837" stroke="#343a40" stroke-width="1.5" fill="none"></path></g><g stroke-opacity="0.4" fill-opacity="0.4" transform="translate(696.9358120638585 195.32421875) rotate(0 -144.4975019913079 16.483073507745814)"><path d="M-268.3352609087217 -0.3125165608049727 C-273.5503679874131 -5.803488400694337, -278.7654750661045 -11.294460240583701, -288.9950039826158 -22.06510298450837" stroke="#343a40" stroke-width="1.5" fill="none"></path></g></g><g stroke-opacity="0.4" fill-opacity="0.4" transform="translate(201.37890625 421.33203125) rotate(0 42.794921875 40.587890625)"><path d="M42.794921875 0 C50.5572233621679 -0.554499381219769, 60.6097984542016 2.879112565962422, 67.30745288710918 7.317927751813805 C74.00510732001676 11.756742937665187, 80.1715347174254 19.355882423099654, 82.98084847244547 26.6328911151083 C85.79016222746554 33.90989980711694, 86.25539133839395 43.4888423238615, 84.16333541722963 50.979979903865676 C82.07127949606532 58.471117483869854, 76.66755028325166 66.5757288950232, 70.4285129454596 71.57971659513336 C64.18947560766755 76.58370429524352, 54.86535447162236 80.29148925305213, 46.729111390477335 81.00390610452665 C38.59286830933231 81.71632295600116, 28.710601662571097 79.6902667980774, 21.611054458589464 75.85421770398042 C14.511507254607832 72.01816860988345, 7.634606885083123 64.98886030532596, 4.131828166587539 57.987611539944815 C0.6290494480919548 50.98636277456367, -0.7626977281643896 41.48854702312741, 0.5943821476159599 33.846725111693594 C1.9514620233963094 26.20490320025978, 6.546727345132155 17.66346010282087, 12.274307421269636 12.136680071341917 C18.001887497407118 6.609900039862965, 29.873093528819126 2.708824934710201, 34.95986260444085 0.6860449228198817 C40.046631680062575 -1.3367350890704377, 41.489078663240136 -0.020952148280019383, 42.79492187499999 0 C44.10076508675985 0.020952148280019383, 42.794921875 0.13529296874999852, 42.794921875 0.811757812499998" stroke="#000000" stroke-width="4.5" fill="none" stroke-dasharray="12 8"></path></g><g stroke-opacity="0.9" fill-opacity="0.9" transform="translate(228.458984375 451.248046875) rotate(0 20.5 12.5)"><text x="20.5" y="18" font-family="Virgil, Segoe UI Emoji" font-size="20px" fill="#5c940d" text-anchor="middle" style="white-space: pre;" direction="ltr">user</text></g><g><g stroke-opacity="0.1" fill-opacity="0.1" transform="translate(248.34826276050353 414.0249349264319) rotate(0 -1.4210510170491375 -98.45777996321593)"><path d="M0 0 C-1.0772796984277355 -74.6395211952971, -2.154559396855471 -149.2790423905942, -2.842102034098275 -196.91555992643185 M0 0 C-0.5695403718914263 -39.46070897039104, -1.1390807437828525 -78.92141794078208, -2.842102034098275 -196.91555992643185" stroke="#000000" stroke-width="2" fill="none"></path></g><g stroke-opacity="0.1" fill-opacity="0.1" transform="translate(248.34826276050353 414.0249349264319) rotate(0 -1.4210510170491375 -98.45777996321593)"><path d="M-14.998437886164076 0.21647395889125753 C-9.313380682360934 0.13442095785400898, -3.6283234785577925 0.05236795681676046, 0 0 M-14.998437886164076 0.21647395889125753 C-11.992839991017934 0.17309386290154652, -8.987242095871792 0.1297137669118355, 0 0" stroke="#000000" stroke-width="2" fill="none"></path></g><g stroke-opacity="0.1" fill-opacity="0.1" transform="translate(248.34826276050353 414.0249349264319) rotate(0 -1.4210510170491375 -98.45777996321593)"><path d="M14.998437886164076 -0.21647395889125937 C9.313380682360934 -0.13442095785401015, 3.6283234785577925 -0.0523679568167609, 0 0 M14.998437886164076 -0.21647395889125937 C11.992839991017934 -0.173093862901548, 8.987242095871792 -0.1297137669118366, 0 0" stroke="#000000" stroke-width="2" fill="none"></path></g><g stroke-opacity="0.1" fill-opacity="0.1" transform="translate(248.34826276050353 414.0249349264319) rotate(0 -1.4210510170491375 -98.45777996321593)"><path d="M7.824271680400539 -168.875794025436 C3.7812543219057027 -179.50407907340505, -0.2617630365891337 -190.1323641213741, -2.842102034098275 -196.91555992643185 M7.824271680400539 -168.875794025436 C5.686793722465083 -174.49479661837722, 3.5493157645296263 -180.11379921131842, -2.842102034098275 -196.91555992643185" stroke="#000000" stroke-width="2" fill="none"></path></g><g stroke-opacity="0.1" fill-opacity="0.1" transform="translate(248.34826276050353 414.0249349264319) rotate(0 -1.4210510170491375 -98.45777996321593)"><path d="M-12.694799821547377 -168.57964020765095 C-8.960200861404706 -179.32018037232024, -5.225601901262036 -190.06072053698955, -2.842102034098275 -196.91555992643185 M-12.694799821547377 -168.57964020765095 C-10.720377687973984 -174.2579902671837, -8.745955554400593 -179.93634032671645, -2.842102034098275 -196.91555992643185" stroke="#000000" stroke-width="2" fill="none"></path></g></g><g stroke-opacity="0.6" fill-opacity="0.6" transform="translate(649.33984375 10) rotate(0 166.33203125 127.1171875)"><path d="M0 0 C123.07820598020263 0, 246.15641196040525 0, 332.6640625 0 M0 0 C116.09270336724074 0, 232.1854067344815 0, 332.6640625 0 M332.6640625 0 C332.6640625 90.21841795771181, 332.6640625 180.43683591542361, 332.6640625 254.234375 M332.6640625 0 C332.6640625 98.50969006239175, 332.6640625 197.0193801247835, 332.6640625 254.234375 M332.6640625 254.234375 C202.22528351249127 254.234375, 71.78650452498255 254.234375, 0 254.234375 M332.6640625 254.234375 C213.71419094197262 254.234375, 94.76431938394524 254.234375, 0 254.234375 M0 254.234375 C0 199.21487817502782, 0 144.19538135005567, 0 0 M0 254.234375 C0 190.43272501494064, 0 126.6310750298813, 0 0" stroke="#d9480f" stroke-width="1" fill="none"></path></g><g stroke-opacity="0.6" fill-opacity="0.6" transform="translate(771.2734375 240.8359375) rotate(0 103 9.5)"><text x="0" y="15" font-family="Cascadia, Segoe UI Emoji" font-size="16px" fill="#d9480f" text-anchor="start" style="white-space: pre;" direction="ltr">Influenced by Platform</text></g></svg>
