<svg version="1.1" xmlns="http://www.w3.org/2000/svg" viewBox="0 0 558.91015625 311.21875" width="558.91015625" height="311.21875">
  <!-- svg-source:excalidraw -->

  <defs>
    <style>
      @font-face {
        font-family: "Virgil";
        src: url("https://excalidraw.com/FG_Virgil.woff2");
      }
      @font-face {
        font-family: "Cascadia";
        src: url("https://excalidraw.com/Cascadia.woff2");
      }
    </style>
  </defs>
  <rect x="0" y="0" width="558.91015625" height="311.21875" fill="#ffffff"></rect><g transform="translate(26.5703125 266.34765625) rotate(0 78.5 12.5)"><text x="0" y="18" font-family="Virgil, Segoe UI Emoji" font-size="20px" fill="#000000" text-anchor="start" style="white-space: pre;" direction="ltr">Freshworks CLI</text></g><g transform="translate(10 259.578125) rotate(0 95.951171875 20.8203125)"><path d="M-0.8914729859679937 -0.29250566102564335 C49.76895467453178 1.2225121232268794, 99.82886696943096 1.8492280813453181, 193.31778896786273 0.9561114516109228 M0.9360619289800525 0.6453737961128354 C62.783444131853685 1.049639291083331, 124.29581485248855 0.8856109743471097, 192.49741748999804 0.8045034455135465 M190.10833681561053 1.4912700857967138 C192.85042979480423 13.860033831842884, 192.9240321731726 27.986386918099015, 193.7429012749344 43.19291110895574 M192.05191544722766 -0.024603123776614666 C192.26179280549331 8.239189278632693, 192.24304324060722 18.345637816601084, 191.10177637171 41.45270756352693 M191.76207155920565 42.561703165993094 C154.16785016094326 42.02747607326764, 113.4058526548928 42.30205351209897, 1.8283472154289484 41.78906097076833 M192.3199172122404 42.329220806248486 C122.47908108465963 40.143600618660095, 54.144481033433834 40.2331256924268, 0.969825248233974 42.075182502157986 M1.5854172799736261 43.31814660690725 C-0.057056621189258305 26.26545977890055, 0.41781757724747876 14.238794908291311, -0.2988590504974127 1.7747734393924475 M-0.6178734498098493 42.27132922876626 C0.8704860342382744 32.97015536500112, 0.6200031472086266 25.397929140701308, 0.25436563324183226 0.4834822164848447" stroke="#000000" stroke-width="1" fill="none"></path></g><g transform="translate(65.00390625 22.33984375) rotate(0 39.5 12.5)"><text x="0" y="18" font-family="Virgil, Segoe UI Emoji" font-size="20px" fill="#000000" text-anchor="start" style="white-space: pre;" direction="ltr">Browser</text></g><g transform="translate(44.75390625 10) rotate(0 55.3515625 23.6640625)"><path d="M0.8786111082881689 -0.5631918217986822 C33.92981151500863 -1.4814298893186788, 70.18830829318905 1.2542456244256754, 111.15967412851751 -1.9170173313468695 M-0.21438645850867033 -0.6487386720255017 C32.044612472665904 -0.6003964105642807, 62.90188277377457 -0.44934330973992465, 110.47113803494722 -0.2427900629118085 M112.33986755274236 -0.8002365734428167 C110.49743561910101 17.446629326663974, 112.57338940070578 29.339378786951425, 111.08072938583791 46.66943378187716 M111.49370840657502 0.25161878298968077 C110.53957309122794 14.34824436959898, 109.68995784517043 29.517420729828885, 109.99256164301187 47.72431982588023 M110.68293513916433 48.74335260130465 C67.96823342460993 44.96202987463694, 28.635510698703 45.466286778762154, 1.29027303121984 46.09761501289904 M110.9851561235264 47.2524887425825 C89.2346059947522 46.25646289563956, 65.26549373981834 47.35443257666411, -0.48168411385267973 47.95426521729678 M-1.9682237301021814 47.20044923759997 C0.5332163956332079 29.328334859419556, -0.041552326424134645 16.507499549232307, -1.894373157992959 0.7132905218750238 M-0.2253643525764346 46.76546178292483 C-0.6442235082447587 33.96616624173621, 0.0867410033881606 21.938090907761943, 0.7164000319316983 -0.6540586249902844" stroke="#000000" stroke-width="1" fill="none"></path></g><g transform="translate(82.00390625 212.6171875) rotate(0 16.5 12.5)"><text x="0" y="18" font-family="Virgil, Segoe UI Emoji" font-size="20px" fill="#000000" text-anchor="start" style="white-space: pre;" direction="ltr">App</text></g><g transform="translate(70.125 203.83203125) rotate(0 30.453125 21.48046875)"><path d="M1.7276774737983942 0.719337722286582 C13.439441682767939 -0.85718424999126, 29.131073826918147 1.841532211667218, 59.20314616896212 1.4749719705432653 M0.0015930337831377983 0.8973337458446622 C12.511321750705248 0.21640269233350407, 27.192234053747963 0.7675795681632007, 61.32930506300181 -0.7090538395568728 M59.52950639463961 -0.7905743513256311 C58.811641499389005 9.368962379854201, 60.65311764179547 20.982072337962745, 60.20792652107775 42.18828644417226 M60.72734702657908 0.17456999886780977 C61.84065559541639 10.592695928370087, 61.85546487605032 22.966911831322072, 60.023392300121486 42.53690666425973 M61.20382715202868 43.30764307640493 C44.8496535299375 41.576614975919654, 30.755743350839474 41.12351030110352, 1.7966855261474848 42.767970165237784 M61.25914941262454 43.76848429907113 C37.846843559804256 43.01237397256802, 15.86689072669833 42.9464377349944, 0.4544056160375476 43.57442924845964 M0.26827890612185 41.05201490782201 C-1.2701134863524204 30.953016636351094, -1.1554172816900974 19.165867958996387, 1.918702969327569 1.711032411083579 M0.034957955591380596 42.41641185153276 C-0.426957223753634 27.550030663092183, 0.17502742614298772 12.387359077007567, 0.1726074619218707 -0.06520556937903166" stroke="#000000" stroke-width="1" fill="none"></path></g><g><g transform="translate(101.68359375 196.8359375) rotate(0 0.1447669927030688 -64.94077647961677)"><path d="M-0.8684513088315725 -0.21312860883772378 C-0.6354631459961335 -21.837614129359526, 0.9821401520321764 -108.09319000480077, 1.1579852942377327 -129.6684243503958 M0.8764730246923866 -1.3706250738166272 C1.0484657154542707 -22.88754305691148, 0.9176800191464525 -107.41826453159872, 0.6661242975853385 -128.6705937581323" stroke="#000000" stroke-width="1" fill="none"></path></g><g transform="translate(101.68359375 196.8359375) rotate(0 0.1447669927030688 -64.94077647961677)"><path d="M10.73366564837633 -99.09115799324177 C6.439060686667403 -108.66240810780218, 3.527122955911456 -115.60901244035429, 0.13864686368033308 -130.53380578665062 M12.022993121756002 -99.96469048311523 C7.777861993973842 -109.39938587048663, 3.566105152918448 -120.43342727943153, 1.6178736922331156 -128.77556471528484" stroke="#000000" stroke-width="1" fill="none"></path></g><g transform="translate(101.68359375 196.8359375) rotate(0 0.1447669927030688 -64.94077647961677)"><path d="M-9.787202766724015 -98.97299761080929 C-8.335945551202725 -108.42882172837741, -5.501943819200095 -115.40851152254936, 0.13864686368033308 -130.53380578665062 M-8.497875293344343 -99.84653010068276 C-5.6701608213257 -109.38019820059647, -2.810250550680607 -120.45495868991611, 1.6178736922331156 -128.77556471528484" stroke="#000000" stroke-width="1" fill="none"></path></g></g><g transform="translate(116.80078125 125.89453125) rotate(0 70.5 9.5)"><text x="0" y="15" font-family="Cascadia, Segoe UI Emoji" font-size="16px" fill="#000000" text-anchor="start" style="white-space: pre;" direction="ltr">localhost:10001</text></g><g transform="translate(164.91015625 25.4765625) rotate(0 192 9.5)"><text x="0" y="15" font-family="Cascadia, Segoe UI Emoji" font-size="16px" fill="#2b8a3e" text-anchor="start" style="white-space: pre;" direction="ltr">&lt;any freshworks product domain&gt;/?dev=true</text></g></svg>
