<svg version="1.1" xmlns="http://www.w3.org/2000/svg" viewBox="0 0 795.88671875 538.8529052734375" width="795.88671875" height="538.8529052734375">
  <!-- svg-source:excalidraw -->

  <defs>
    <style>
      @font-face {
        font-family: "Virgil";
        src: url("https://excalidraw.com/FG_Virgil.woff2");
      }
      @font-face {
        font-family: "Cascadia";
        src: url("https://excalidraw.com/Cascadia.woff2");
      }
    </style>
  </defs>
  <rect x="0" y="0" width="795.88671875" height="538.8529052734375" fill="#ffffff"></rect><g stroke-opacity="0.5" fill-opacity="0.5" transform="translate(22.125 361.5234375) rotate(0 65.09375 62.421875)"><path d="M0 0 C0 0, 0 0, 0 0 M0 0 C0 0, 0 0, 0 0 M-0.2614568240614483 6.397784017075889 C1.5525067427974686 4.311057637911455, 3.3664703096563855 2.2243312587470223, 4.98701540786261 0.36010737529371317 M-0.2614568240614483 6.397784017075889 C0.9192983325592694 5.03948058823612, 2.100053489179987 3.6811771593963516, 4.98701540786261 0.36010737529371317 M0.13314538086761107 12.040858453929006 C3.8613984741040133 7.751993881345844, 7.5896515673404155 3.4631293087626815, 10.630089844715727 -0.03449482963534578 M0.13314538086761107 12.040858453929006 C2.572762854561723 9.234399586486967, 5.012380328255835 6.427940719044928, 10.630089844715727 -0.03449482963534578 M-0.12831144319383903 18.438642471004897 C4.029651423503827 13.6554533507578, 8.187614290201493 8.872264230510702, 15.617105252578337 0.32561254565836695 M-0.12831144319383903 18.438642471004897 C4.2551951791737475 13.395994939789148, 8.638701801541334 8.3533474085734, 15.617105252578337 0.32561254565836695 M0.26629076173522215 24.081716907858013 C6.833185319600752 16.527368874937928, 13.400079877466283 8.97302084201784, 21.260179689431453 -0.06898965927069156 M0.26629076173522215 24.081716907858013 C7.779920399016503 15.438274749570173, 15.293550036297784 6.794832591282333, 21.260179689431453 -0.06898965927069156 M0.004833937673772937 30.4795009249339 C10.436203125982765 18.47958336664457, 20.867572314291756 6.479665808355239, 26.247195097294064 0.29111771602302206 M0.004833937673772937 30.4795009249339 C6.095137840947816 23.473407724232644, 12.185441744221858 16.467314523531385, 26.247195097294064 0.29111771602302206 M-0.25662288638767805 36.877284942009794 C8.623630254996742 26.66172228003603, 17.503883396381163 16.446159618062268, 31.89026953414718 -0.10348448890603734 M-0.25662288638767805 36.877284942009794 C10.097396109514916 24.966348601357247, 20.45141510541751 13.055412260704703, 31.89026953414718 -0.10348448890603734 M0.13797931854138312 42.520359378862906 C13.924153317025493 26.661180354555047, 27.710327315509602 10.802001330247187, 36.877284942009794 0.25662288638767805 M0.13797931854138312 42.520359378862906 C7.587237627147928 33.950967963413326, 15.036495935754473 25.381576547963743, 36.877284942009794 0.25662288638767805 M-0.12347750552006431 48.9181433959388 C16.72731988582316 29.53351844045535, 33.578117277166385 10.1488934849719, 42.520359378862906 -0.13797931854138312 M-0.12347750552006431 48.9181433959388 C12.516726849791866 34.377251644770546, 25.156931205103795 19.836359893602292, 42.520359378862906 -0.13797931854138312 M0.2711246994089933 54.56121783279191 C15.2578283841787 37.32098738545015, 30.244532068948406 20.080756938108394, 47.50737478672552 0.22212805675232872 M0.2711246994089933 54.56121783279191 C17.58624925321341 34.64244557899853, 34.901373807017826 14.723673325205155, 47.50737478672552 0.22212805675232872 M0.009667875347545873 60.9590018498678 C11.159661485016931 48.132401460588, 22.309655094686317 35.30580107130819, 53.15044922357863 -0.1724741481767289 M0.009667875347545873 60.9590018498678 C11.259197155952107 48.01789876935263, 22.508726436556667 35.07679568883745, 53.15044922357863 -0.1724741481767289 M-0.25178894871390156 67.3567858669437 C13.421867351576394 51.62704364789123, 27.09552365186669 35.89730142883876, 58.13746463144125 0.1876332271169865 M-0.25178894871390156 67.3567858669437 C20.70939438260713 43.24370278462435, 41.67057771392816 19.130619702304998, 58.13746463144125 0.1876332271169865 M0.14281325621515606 72.99986030379681 C16.1255412885831 54.61383491415512, 32.10826932095104 36.227809524513425, 63.78053906829436 -0.20696897781207468 M0.14281325621515606 72.99986030379681 C22.93204599289325 46.78384693871554, 45.721278729571345 20.567833573634267, 63.78053906829436 -0.20696897781207468 M-0.11864356784629138 79.3976443208727 C15.53183856783498 61.39382411420817, 31.18232070351625 43.39000390754364, 68.76755447615697 0.1531383974816336 M-0.11864356784629138 79.3976443208727 C18.81894719201227 57.61243820185089, 37.75653795187083 35.82723208282909, 68.76755447615697 0.1531383974816336 M0.27595863708276624 85.04071875772581 C18.118752472366097 64.51493243305808, 35.96154630764943 43.989146108390344, 74.41062891301009 -0.2414638074474169 M0.27595863708276624 85.04071875772581 C28.83423545903004 52.18817933708566, 57.392512280977314 19.3356399164455, 74.41062891301009 -0.2414638074474169 M0.01450181302131881 91.4385027748017 C22.889047450591747 65.12434814380552, 45.763593088162175 38.81019351280933, 79.3976443208727 0.11864356784629138 M0.01450181302131881 91.4385027748017 C21.334816168499593 66.91228670823894, 42.65513052397787 42.38607064167616, 79.3976443208727 0.11864356784629138 M-0.24695501104012862 97.8362867918776 C24.534679642528044 69.3282772071194, 49.316314296096216 40.8202676223612, 85.04071875772581 -0.27595863708276624 M-0.24695501104012862 97.8362867918776 C25.507089294434834 68.20964786468905, 51.2611335999098 38.5830089375005, 85.04071875772581 -0.27595863708276624 M0.147647193888929 103.47936122873071 C27.069694465901968 72.50908858929634, 53.99174173791501 41.53881594986197, 90.02773416558841 0.08414873821094204 M0.147647193888929 103.47936122873071 C31.92962648352574 66.91837633498008, 63.71160577316255 30.357391441229467, 90.02773416558841 0.08414873821094204 M-0.11380963017251844 109.87714524580659 C28.96527611106745 76.4254836982132, 58.04436185230742 42.97382215061981, 95.67080860244155 -0.3104534667181156 M-0.11380963017251844 109.87714524580659 C26.385476030536996 79.39320420780165, 52.88476169124651 48.90926316979671, 95.67080860244155 -0.3104534667181156 M0.2807925747565392 115.52021968265971 C23.81185454497945 88.4508294037555, 47.34291651520236 61.38143912485131, 100.65782401030415 0.049653908575599814 M0.2807925747565392 115.52021968265971 C20.657078441715058 92.07998416480667, 41.033364308673576 68.63974864695365, 100.65782401030415 0.049653908575599814 M0.019335750695091747 121.9180036997356 C39.679156650540776 76.29459870050962, 79.33897755038646 30.671193701283627, 106.30089844715727 -0.3449482963534578 M0.019335750695091747 121.9180036997356 C25.205043851062435 92.94516078758275, 50.39075195142978 63.97231787542988, 106.30089844715727 -0.3449482963534578 M1.7260560136051666 126.05165897614317 C40.79097494178067 81.11261041052005, 79.85589386995616 36.17356184489692, 111.28791385501988 0.015159078940250481 M1.7260560136051666 126.05165897614317 C39.977131367301396 82.04883034702081, 78.22820672099763 38.04600171789846, 111.28791385501988 0.015159078940250481 M6.713071421467781 126.4117663514369 C48.708989285342795 78.10098920858664, 90.7049071492178 29.790212065736384, 116.2749292628825 0.375266454233973 M6.713071421467781 126.4117663514369 C36.29228227637576 92.38477667342201, 65.87149313128374 58.35778699540711, 116.2749292628825 0.375266454233973 M12.3561458583209 126.01716414650784 C36.488882894734154 98.25562588004566, 60.62161993114741 70.49408761358347, 121.9180036997356 -0.019335750695091747 M12.3561458583209 126.01716414650784 C54.3997184271007 77.65156653667968, 96.4432909958805 29.285968926851524, 121.9180036997356 -0.019335750695091747 M17.3431612661835 126.37727152180155 C40.2082603528857 100.07398390448137, 63.073359439587904 73.7706962871612, 126.9050191075982 0.34077162459862365 M17.3431612661835 126.37727152180155 C41.67767948663004 98.38361055605581, 66.01219770707658 70.3899495903101, 126.9050191075982 0.34077162459862365 M22.98623570303662 125.98266931687249 C52.27077388731573 92.29466176962049, 81.55531207159484 58.606654222368505, 131.23597548647032 1.455588580115105 M22.98623570303662 125.98266931687249 C61.73595241942457 81.40621941757595, 100.48566913581251 36.82976951827942, 131.23597548647032 1.455588580115105 M27.973251110899234 126.3427766921662 C60.584380409587254 88.82796382315604, 93.19550970827527 51.3131509541459, 131.63057769139937 7.098663016968217 M27.973251110899234 126.3427766921662 C58.984727361350394 90.66815415236252, 89.99620361180155 54.99353161255884, 131.63057769139937 7.098663016968217 M33.61632554775234 125.94817448723714 C57.364060360286956 98.62953061583477, 81.11179517282159 71.3108867444324, 131.36912086733793 13.496447034044117 M33.61632554775234 125.94817448723714 C70.98673870027596 82.95843183177749, 108.35715185279957 39.968689176317824, 131.36912086733793 13.496447034044117 M38.603340955614954 126.30828186253086 C71.8563906776346 88.0550240185701, 105.10944039965423 49.80176617460933, 131.763723072267 19.139521470897236 M38.603340955614954 126.30828186253086 C63.41746401650242 97.76289864039163, 88.23158707738989 69.21751541825239, 131.763723072267 19.139521470897236 M44.24641539246807 125.91367965760179 C75.98257016945215 89.4054098354832, 107.71872494643621 52.897140013364606, 131.50226624820556 25.537305487973114 M44.24641539246807 125.91367965760179 C64.01888381605715 103.1680566503299, 83.79135223964624 80.42243364305803, 131.50226624820556 25.537305487973114 M49.23343080033069 126.27378703289551 C80.58041217101625 90.2132100023133, 111.9273935417018 54.15263297173108, 131.2408094241441 31.935089505049014 M49.23343080033069 126.27378703289551 C69.5898417342581 102.85641501009708, 89.94625266818552 79.43904298729865, 131.2408094241441 31.935089505049014 M54.8765052371838 125.87918482796644 C81.71945489449224 94.99990358557477, 108.56240455180068 64.1206223431831, 131.63541162907313 37.57816394190212 M54.8765052371838 125.87918482796644 C79.45000672764385 97.6106050585428, 104.0235082181039 69.34202528911916, 131.63541162907313 37.57816394190212 M59.86352064504641 126.23929220326016 C76.14420261864157 107.51051001282369, 92.42488459223675 88.7817278223872, 131.3739548050117 43.97594795897801 M59.86352064504641 126.23929220326016 C83.36977017793352 99.19844536837321, 106.87601971082063 72.15759853348627, 131.3739548050117 43.97594795897801 M65.50659508189953 125.84468999833112 C79.31426851641268 109.96077870204238, 93.12194195092584 94.07686740575363, 131.76855700994076 49.61902239583114 M65.50659508189953 125.84468999833112 C88.79928920590761 99.04951055900978, 112.09198332991568 72.25433111968843, 131.76855700994076 49.61902239583114 M70.49361048976213 126.20479737362481 C90.07867122050058 103.67476225547848, 109.66373195123904 81.14472713733215, 131.50710018587932 56.016806412907016 M70.49361048976213 126.20479737362481 C91.91680674050343 101.56022922507644, 113.34000299124475 76.91566107652807, 131.50710018587932 56.016806412907016 M75.48062589762475 126.56490474891854 C88.74353596452332 111.30767202014493, 102.00644603142189 96.05043929137133, 131.24564336181786 62.41459042998291 M75.48062589762475 126.56490474891854 C90.467931734606 109.32398160469626, 105.45523757158725 92.08305846047399, 131.24564336181786 62.41459042998291 M81.12370033447786 126.17030254398946 C95.3004086826278 109.86186514189143, 109.47711703077776 93.55342773979338, 131.64024556674693 68.05766486683602 M81.12370033447786 126.17030254398946 C97.19537250693014 107.68195862558731, 113.26704467938242 89.19361470718516, 131.64024556674693 68.05766486683602 M86.11071574234049 126.53040991928319 C96.37715840809533 114.72021862205298, 106.64360107385016 102.91002732482278, 131.3787887426855 74.45544888391191 M86.11071574234049 126.53040991928319 C98.7501647747917 111.99038706767115, 111.38961380724291 97.45036421605913, 131.3787887426855 74.45544888391191 M91.75379017919359 126.13580771435413 C104.38477401353398 111.60552295920964, 117.0157578478744 97.07523820406516, 131.77339094761453 80.09852332076504 M91.75379017919359 126.13580771435413 C107.43525228903526 108.09634912415895, 123.11671439887694 90.05689053396377, 131.77339094761453 80.09852332076504 M96.7408055870562 126.49591508964784 C105.59336734297872 116.31220772266163, 114.44592909890125 106.12850035567541, 131.5119341235531 86.49630733784092 M96.7408055870562 126.49591508964784 C105.42099261741811 116.51050216114994, 114.10117964778003 106.52508923265204, 131.5119341235531 86.49630733784092 M102.38388002390931 126.10131288471878 C108.89643645370012 118.60947371764338, 115.40899288349094 111.11763455056798, 131.25047729949165 92.89409135491681 M102.38388002390931 126.10131288471878 C110.86059559647784 116.3499670930376, 119.33731116904636 106.59862130135643, 131.25047729949165 92.89409135491681 M107.37089543177191 126.4614202600125 C114.43991465447573 118.32944387617603, 121.50893387717953 110.19746749233954, 131.6450795044207 98.53716579176994 M107.37089543177191 126.4614202600125 C114.8025484828822 117.9122813765876, 122.2342015339925 109.3631424931627, 131.6450795044207 98.53716579176994 M113.01396986862504 126.06681805508343 C116.70414925723267 121.82175226945107, 120.39432864584032 117.5766864838187, 131.38362268035925 104.93494980884581 M113.01396986862504 126.06681805508343 C118.60528264077817 119.63474848710715, 124.19659541293132 113.20267891913085, 131.38362268035925 104.93494980884581 M118.00098527648765 126.42692543037715 C123.47397801377721 120.1309674924492, 128.94697075106677 113.83500955452124, 131.7782248852883 110.57802424569894 M118.00098527648765 126.42692543037715 C121.22846687520044 122.7141325643308, 124.45594847391324 119.00133969828445, 131.7782248852883 110.57802424569894 M123.64405971334078 126.0323232254481 C125.39460036586628 124.01855656322671, 127.14514101839178 122.00478990100532, 131.51676806122686 116.97580826277483 M123.64405971334078 126.0323232254481 C125.72410107389052 123.63950935855866, 127.80414243444028 121.24669549166921, 131.51676806122686 116.97580826277483 M128.6310751212034 126.3924306007418 C129.48110691208115 125.41458088338254, 130.3311387029589 124.43673116602328, 131.25531123716542 123.37359227985071 M128.6310751212034 126.3924306007418 C129.3627976146104 125.55068016147341, 130.09452010801738 124.70892972220501, 131.25531123716542 123.37359227985071" stroke="#15aabf" stroke-width="0.5" fill="none"></path><path d="M0 0 C36.44971238159342 0, 72.89942476318684 0, 130.1875 0 M0 0 C47.44789232920157 0, 94.89578465840314 0, 130.1875 0 M130.1875 0 C130.1875 36.12409485838725, 130.1875 72.2481897167745, 130.1875 124.84375 M130.1875 0 C130.1875 31.05566362003447, 130.1875 62.11132724006894, 130.1875 124.84375 M130.1875 124.84375 C102.6059851049562 124.84375, 75.0244702099124 124.84375, 0 124.84375 M130.1875 124.84375 C103.01850842748536 124.84375, 75.84951685497072 124.84375, 0 124.84375 M0 124.84375 C0 86.96499090120778, 0 49.086231802415554, 0 0 M0 124.84375 C0 98.07437693429529, 0 71.30500386859057, 0 0" stroke="#000000" stroke-width="1" fill="none"></path></g><g stroke-opacity="0.5" fill-opacity="0.5" transform="translate(269.06640625 10) rotate(0 65.09375 62.421875)"><path d="M0 0 L130.1875 0 L130.1875 124.84375 L0 124.84375" stroke="none" stroke-width="0" fill="#228be6"></path><path d="M0 0 C41.969887738011316 0, 83.93977547602263 0, 130.1875 0 M0 0 C49.42977265353548 0, 98.85954530707096 0, 130.1875 0 M130.1875 0 C130.1875 26.65568784772768, 130.1875 53.31137569545536, 130.1875 124.84375 M130.1875 0 C130.1875 43.107416729355464, 130.1875 86.21483345871093, 130.1875 124.84375 M130.1875 124.84375 C83.99405574119882 124.84375, 37.80061148239764 124.84375, 0 124.84375 M130.1875 124.84375 C93.61336212147725 124.84375, 57.0392242429545 124.84375, 0 124.84375 M0 124.84375 C0 75.06741192229674, 0 25.291073844593484, 0 0 M0 124.84375 C0 88.44716732492088, 0 52.05058464984177, 0 0" stroke="#000000" stroke-width="1" fill="none"></path></g><g stroke-opacity="0.5" fill-opacity="0.5" transform="translate(513.19921875 356.73828125) rotate(0 65.09375 62.421875)"><path d="M0 0 C0 0, 0 0, 0 0 M0 0 C0 0, 0 0, 0 0 M-0.2614568240614483 6.397784017075889 C1.6096444666263077 4.2453282055582395, 3.4807457573140637 2.092872394040591, 4.98701540786261 0.36010737529371317 M-0.2614568240614483 6.397784017075889 C1.2876865053377418 4.615698472677891, 2.836829834736932 2.833612928279893, 4.98701540786261 0.36010737529371317 M0.13314538086761107 12.040858453929006 C2.752592732305569 9.027528976456031, 5.372040083743527 6.0141994989830545, 10.630089844715727 -0.03449482963534578 M0.13314538086761107 12.040858453929006 C3.9705174705466435 7.62646683521058, 7.807889560225676 3.2120752164921544, 10.630089844715727 -0.03449482963534578 M-0.12831144319383903 18.438642471004897 C3.8534081680768963 13.858198023786723, 7.835127779347632 9.27775357656855, 15.617105252578337 0.32561254565836695 M-0.12831144319383903 18.438642471004897 C3.0760597825823246 14.752435047863937, 6.280431008358488 11.066227624722977, 15.617105252578337 0.32561254565836695 M0.26629076173522215 24.081716907858013 C6.96975420835519 16.370264339905543, 13.673217654975158 8.65881177195307, 21.260179689431453 -0.06898965927069156 M0.26629076173522215 24.081716907858013 C7.241901766725947 16.057194386653485, 14.217512771716672 8.032671865448961, 21.260179689431453 -0.06898965927069156 M0.004833937673772937 30.4795009249339 C8.56036864854358 20.63748408666654, 17.115903359413387 10.79546724839918, 26.247195097294064 0.29111771602302206 M0.004833937673772937 30.4795009249339 C7.158188799907995 22.250507485778854, 14.311543662142217 14.02151404662381, 26.247195097294064 0.29111771602302206 M-0.25662288638767805 36.877284942009794 C8.77318965306989 26.489673873489693, 17.803002192527458 16.102062804969588, 31.89026953414718 -0.10348448890603734 M-0.25662288638767805 36.877284942009794 C7.343753130447233 28.134052489242656, 14.944129147282144 19.390820036475517, 31.89026953414718 -0.10348448890603734 M0.13797931854138312 42.520359378862906 C12.21432340446819 28.62811466768243, 24.290667490395 14.73586995650195, 36.877284942009794 0.25662288638767805 M0.13797931854138312 42.520359378862906 C8.24639955601925 33.192688905196896, 16.354819793497118 23.86501843153088, 36.877284942009794 0.25662288638767805 M-0.12347750552006431 48.9181433959388 C15.117422024795358 31.385494078634412, 30.35832155511078 13.852844761330026, 42.520359378862906 -0.13797931854138312 M-0.12347750552006431 48.9181433959388 C12.714103736322624 34.15019551018992, 25.551684978165312 19.382247624441028, 42.520359378862906 -0.13797931854138312 M0.2711246994089933 54.56121783279191 C9.92339615587809 43.457549691348746, 19.575667612347186 32.35388154990558, 47.50737478672552 0.22212805675232872 M0.2711246994089933 54.56121783279191 C15.648281260193782 36.871822732373815, 31.02543782097857 19.182427631955726, 47.50737478672552 0.22212805675232872 M0.009667875347545873 60.9590018498678 C13.961721990318235 44.90899958016764, 27.913776105288925 28.858997310467473, 53.15044922357863 -0.1724741481767289 M0.009667875347545873 60.9590018498678 C11.088881829998066 48.2138241395957, 22.168095784648585 35.4686464293236, 53.15044922357863 -0.1724741481767289 M-0.25178894871390156 67.3567858669437 C16.503781759148 48.08170667966159, 33.259352467009904 28.806627492379498, 58.13746463144125 0.1876332271169865 M-0.25178894871390156 67.3567858669437 C12.836494756696112 52.30043778749449, 25.924778462106126 37.24408970804528, 58.13746463144125 0.1876332271169865 M0.14281325621515606 72.99986030379681 C12.91396371747472 58.30833228929778, 25.685114178734285 43.61680427479875, 63.78053906829436 -0.20696897781207468 M0.14281325621515606 72.99986030379681 C19.26676235084613 51.000273444030505, 38.3907114454771 29.0006865842642, 63.78053906829436 -0.20696897781207468 M-0.11864356784629138 79.3976443208727 C20.631988837357508 55.526772372069736, 41.38262124256131 31.655900423266772, 68.76755447615697 0.1531383974816336 M-0.11864356784629138 79.3976443208727 C21.442222772808115 54.59470485026901, 43.00308911346252 29.791765379665314, 68.76755447615697 0.1531383974816336 M0.27595863708276624 85.04071875772581 C20.053563801187938 62.28918660644813, 39.83116896529311 39.537654455170454, 74.41062891301009 -0.2414638074474169 M0.27595863708276624 85.04071875772581 C28.316605195017935 52.78364483942665, 56.357251752953104 20.526570921127487, 74.41062891301009 -0.2414638074474169 M0.01450181302131881 91.4385027748017 C28.78498706885476 58.34184547607305, 57.5554723246882 25.24518817734439, 79.3976443208727 0.11864356784629138 M0.01450181302131881 91.4385027748017 C27.62858621298914 59.67213248674419, 55.242670612956964 27.90576219868668, 79.3976443208727 0.11864356784629138 M-0.24695501104012862 97.8362867918776 C20.770253618467002 73.65875397651982, 41.78746224797413 49.48122116116204, 85.04071875772581 -0.27595863708276624 M-0.24695501104012862 97.8362867918776 C25.52405053064527 68.19013619440516, 51.29505607233067 38.54398559693271, 85.04071875772581 -0.27595863708276624 M0.147647193888929 103.47936122873071 C33.98358814876516 64.55556372564561, 67.81952910364139 25.631766222560515, 90.02773416558841 0.08414873821094204 M0.147647193888929 103.47936122873071 C22.072859740461602 78.25728939354781, 43.998072287034276 53.0352175583649, 90.02773416558841 0.08414873821094204 M-0.11380963017251844 109.87714524580659 C20.561245789598715 86.09321467335826, 41.23630120936995 62.30928410090992, 95.67080860244155 -0.3104534667181156 M-0.11380963017251844 109.87714524580659 C37.44954974551803 66.66544335092308, 75.01290912120857 23.45374145603958, 95.67080860244155 -0.3104534667181156 M0.2807925747565392 115.52021968265971 C24.356863637303626 87.82386816229759, 48.43293469985071 60.12751664193546, 100.65782401030415 0.049653908575599814 M0.2807925747565392 115.52021968265971 C27.964143273858728 83.67416763239291, 55.647493972960916 51.8281155821261, 100.65782401030415 0.049653908575599814 M0.019335750695091747 121.9180036997356 C36.356111291296536 80.11732509754657, 72.69288683189798 38.316646495357546, 106.30089844715727 -0.3449482963534578 M0.019335750695091747 121.9180036997356 C24.19678834681265 94.10502606607838, 48.37424094293021 66.29204843242115, 106.30089844715727 -0.3449482963534578 M1.7260560136051666 126.05165897614317 C27.997184808822308 95.83018238809123, 54.26831360403945 65.60870580003927, 111.28791385501988 0.015159078940250481 M1.7260560136051666 126.05165897614317 C32.114068120461226 91.09424989016641, 62.502080227317286 56.136840804189646, 111.28791385501988 0.015159078940250481 M6.713071421467781 126.4117663514369 C37.61220343051549 90.86638107767695, 68.51133543956321 55.320995803917015, 116.2749292628825 0.375266454233973 M6.713071421467781 126.4117663514369 C33.74734335055834 95.31239401198934, 60.781615279648896 64.21302167254179, 116.2749292628825 0.375266454233973 M12.3561458583209 126.01716414650784 C40.187173275678234 94.00122946507824, 68.01820069303557 61.98529478364863, 121.9180036997356 -0.019335750695091747 M12.3561458583209 126.01716414650784 C38.864223977090624 95.5231085425286, 65.37230209586035 65.02905293854938, 121.9180036997356 -0.019335750695091747 M17.3431612661835 126.37727152180155 C59.45259111972267 77.93591377220085, 101.56202097326184 29.494556022600165, 126.9050191075982 0.34077162459862365 M17.3431612661835 126.37727152180155 C55.46575108610405 82.52224859151966, 93.5883409060246 38.66722566123778, 126.9050191075982 0.34077162459862365 M22.98623570303662 125.98266931687249 C60.9794478564878 82.27647836669695, 98.97266000993898 38.57028741652141, 131.23597548647032 1.455588580115105 M22.98623570303662 125.98266931687249 C57.86859717379556 85.85510271164802, 92.75095864455449 45.72753610642356, 131.23597548647032 1.455588580115105 M27.973251110899234 126.3427766921662 C57.7820264236144 92.0517033144691, 87.59080173632957 57.76062993677199, 131.63057769139937 7.098663016968217 M27.973251110899234 126.3427766921662 C57.87589986981517 91.94371426768276, 87.7785486287311 57.54465184319933, 131.63057769139937 7.098663016968217 M33.61632554775234 125.94817448723714 C71.70917500313129 82.12736393274314, 109.80202445851026 38.306553378249134, 131.36912086733793 13.496447034044117 M33.61632554775234 125.94817448723714 C56.12882498400781 100.05050636818807, 78.64132442026326 74.152838249139, 131.36912086733793 13.496447034044117 M38.603340955614954 126.30828186253086 C68.51245244772232 91.90178491395972, 98.4215639398297 57.49528796538857, 131.763723072267 19.139521470897236 M38.603340955614954 126.30828186253086 C65.15964845740324 95.75874470002734, 91.71595595919152 65.20920753752381, 131.763723072267 19.139521470897236 M44.24641539246807 125.91367965760179 C63.425575755707555 103.85057949870567, 82.60473611894705 81.78747933980955, 131.50226624820556 25.537305487973114 M44.24641539246807 125.91367965760179 C64.97523609178641 102.06789920615707, 85.70405679110475 78.22211875471234, 131.50226624820556 25.537305487973114 M49.23343080033069 126.27378703289551 C74.22538847030884 97.52382849474785, 99.21734614028699 68.77386995660017, 131.2408094241441 31.935089505049014 M49.23343080033069 126.27378703289551 C66.76909649229914 106.10131122126565, 84.3047621842676 85.92883540963578, 131.2408094241441 31.935089505049014 M54.8765052371838 125.87918482796644 C76.49297818858103 101.01227726913156, 98.10945113997828 76.14536971029668, 131.63541162907313 37.57816394190212 M54.8765052371838 125.87918482796644 C83.64883779260842 92.78040245414942, 112.42117034803303 59.681620080332394, 131.63541162907313 37.57816394190212 M59.86352064504641 126.23929220326016 C84.84030290934575 97.50679097237216, 109.8170851736451 68.77428974148415, 131.3739548050117 43.97594795897801 M59.86352064504641 126.23929220326016 C74.9010749992159 108.94056475235486, 89.93862935338538 91.64183730144956, 131.3739548050117 43.97594795897801 M65.50659508189953 125.84468999833112 C79.15842161433478 110.14006005455606, 92.81024814677002 94.43543011078101, 131.76855700994076 49.61902239583114 M65.50659508189953 125.84468999833112 C80.90029400961713 108.13626508161288, 96.2939929373347 90.42784016489463, 131.76855700994076 49.61902239583114 M70.49361048976213 126.20479737362481 C86.1031009455095 108.24813270051519, 101.71259140125684 90.29146802740556, 131.50710018587932 56.016806412907016 M70.49361048976213 126.20479737362481 C86.9243233928986 107.30342434173802, 103.35503629603508 88.40205130985123, 131.50710018587932 56.016806412907016 M75.48062589762475 126.56490474891854 C87.44644413178541 112.79980548579101, 99.41226236594609 99.03470622266349, 131.24564336181786 62.41459042998291 M75.48062589762475 126.56490474891854 C95.53097148641716 103.49962062970862, 115.58131707520957 80.4343365104987, 131.24564336181786 62.41459042998291 M81.12370033447786 126.17030254398946 C97.10129626921615 107.7901809573237, 113.07889220395444 89.41005937065793, 131.64024556674693 68.05766486683602 M81.12370033447786 126.17030254398946 C93.50597753370467 111.9261220445459, 105.88825473293146 97.68194154510235, 131.64024556674693 68.05766486683602 M86.11071574234049 126.53040991928319 C100.57007122186793 109.89682418685682, 115.02942670139538 93.26323845443045, 131.3787887426855 74.45544888391191 M86.11071574234049 126.53040991928319 C98.12849942732524 112.70553124326064, 110.14628311230999 98.8806525672381, 131.3787887426855 74.45544888391191 M91.75379017919359 126.13580771435413 C104.28346587860412 111.72206463702744, 116.81314157801467 97.30832155970076, 131.77339094761453 80.09852332076504 M91.75379017919359 126.13580771435413 C101.81305786110272 114.56394397330655, 111.87232554301185 102.99208023225896, 131.77339094761453 80.09852332076504 M96.7408055870562 126.49591508964784 C107.98345030928341 113.56273178758764, 119.22609503151062 100.62954848552742, 131.5119341235531 86.49630733784092 M96.7408055870562 126.49591508964784 C104.33536085258109 117.75937864529405, 111.92991611810598 109.02284220094025, 131.5119341235531 86.49630733784092 M102.38388002390931 126.10131288471878 C111.60227165387445 115.4967663882163, 120.82066328383961 104.89221989171381, 131.25047729949165 92.89409135491681 M102.38388002390931 126.10131288471878 C109.9189308648154 117.43322845053632, 117.45398170572147 108.76514401635387, 131.25047729949165 92.89409135491681 M107.37089543177191 126.4614202600125 C112.70474924311175 120.32552334671178, 118.0386030544516 114.18962643341106, 131.6450795044207 98.53716579176994 M107.37089543177191 126.4614202600125 C113.34335863048751 119.59088728291994, 119.31582182920313 112.72035430582737, 131.6450795044207 98.53716579176994 M113.01396986862504 126.06681805508343 C118.50233467169572 119.75317657832717, 123.9906994747664 113.4395351015709, 131.38362268035925 104.93494980884581 M113.01396986862504 126.06681805508343 C118.64428849828109 119.58987738093923, 124.27460712793714 113.11293670679501, 131.38362268035925 104.93494980884581 M118.00098527648765 126.42692543037715 C123.41064499747598 120.20382379353615, 128.8203047184643 113.98072215669514, 131.7782248852883 110.57802424569894 M118.00098527648765 126.42692543037715 C122.62214067824728 121.11089425133417, 127.2432960800069 115.79486307229118, 131.7782248852883 110.57802424569894 M123.64405971334078 126.0323232254481 C126.05091042795682 123.26355820245648, 128.45776114257288 120.49479317946488, 131.51676806122686 116.97580826277483 M123.64405971334078 126.0323232254481 C125.84463548733308 123.50085037735144, 128.04521126132536 120.96937752925477, 131.51676806122686 116.97580826277483 M128.6310751212034 126.3924306007418 C129.19986767436495 125.73810961732218, 129.76866022752648 125.08378863390256, 131.25531123716542 123.37359227985071 M128.6310751212034 126.3924306007418 C129.24248124599396 125.6890883108013, 129.85388737078455 124.98574602086079, 131.25531123716542 123.37359227985071 M0.07179597478958755 124.9061612887132 C0.07179597478958755 124.9061612887132, 0.07179597478958755 124.9061612887132, 0.07179597478958755 124.9061612887132 M0.07179597478958755 124.9061612887132 C0.07179597478958755 124.9061612887132, 0.07179597478958755 124.9061612887132, 0.07179597478958755 124.9061612887132 M6.46957999186548 125.16761811277463 C4.721906723886929 123.64838891888493, 2.9742334559083776 122.12915972499523, -0.32280623013946297 119.26308685186007 M6.46957999186548 125.16761811277463 C4.808522695669994 123.72368303443902, 3.147465399474507 122.27974795610339, -0.32280623013946297 119.26308685186007 M12.1126544287186 124.77301590784558 C8.819963014907115 121.91072293009789, 5.527271601095632 119.0484299523502, 0.03730114515424532 114.27607144399745 M12.1126544287186 124.77301590784558 C8.827361678155725 121.91715448993747, 5.542068927592852 119.06129307202937, 0.03730114515424532 114.27607144399745 M18.510438445794485 125.03447273190702 C13.41201909440232 120.6024844059162, 8.313599743010155 116.17049607992539, -0.3573010597748123 108.63299700714434 M18.510438445794485 125.03447273190702 C14.070997683885105 121.17532575425842, 9.631556921975726 117.31617877660985, -0.3573010597748123 108.63299700714434 M24.153512882647604 124.63987052697797 C14.625923212449205 116.35766318331963, 5.098333542250806 108.07545583966127, 0.0028063155188959854 103.64598159928173 M24.153512882647604 124.63987052697797 C15.170293788635197 116.83087730565549, 6.18707469462279 109.021884084333, 0.0028063155188959854 103.64598159928173 M30.551296899723496 124.90132735103941 C24.45206057157442 119.59934210017248, 18.35282424342535 114.29735684930556, 0.3629136908126185 98.65896619141913 M30.551296899723496 124.90132735103941 C23.614545758210333 118.87130158019045, 16.677794616697174 112.84127580934148, 0.3629136908126185 98.65896619141913 M36.94908091679938 125.16278417510085 C27.057322305542716 116.56400960065598, 17.16556369428605 107.9652350262111, -0.03168851411644624 93.01589175456601 M36.94908091679938 125.16278417510085 C23.630316469877258 113.58495887729319, 10.31155202295513 102.00713357948551, -0.03168851411644624 93.01589175456601 M42.5921553536525 124.76818197017181 C26.11276391843042 110.44286554825094, 9.63337248320834 96.11754912633006, 0.32841886117726915 88.02887634670338 M42.5921553536525 124.76818197017181 C33.634318672327055 116.98125334357188, 24.6764819910016 109.19432471697193, 0.32841886117726915 88.02887634670338 M48.989939370728386 125.02963879423325 C29.412423148080038 108.011163582503, 9.834906925431689 90.99268837077277, -0.06618334375179558 82.38580190985027 M48.989939370728386 125.02963879423325 C37.93979186595813 115.42389211742339, 26.889644361187877 105.81814544061355, -0.06618334375179558 82.38580190985027 M54.63301380758151 124.63503658930419 C34.98190620229352 107.55258936462775, 15.330798597005533 90.47014213995132, 0.2939240315419269 77.39878650198767 M54.63301380758151 124.63503658930419 C36.96686013413289 109.27808349275189, 19.30070646068426 93.92113039619959, 0.2939240315419269 77.39878650198767 M61.0307978246574 124.89649341336565 C37.34834573975934 104.30965189699552, 13.665893654861279 83.72281038062539, -0.1006781733871378 71.75571206513455 M61.0307978246574 124.89649341336565 C47.87118559788792 113.45701702983068, 34.71157337111845 102.01754064629571, -0.1006781733871378 71.75571206513455 M67.42858184173329 125.15795023742709 C51.60292913684366 111.40092022378104, 35.777276431954036 97.643890210135, 0.2594292019065776 66.76869665727195 M67.42858184173329 125.15795023742709 C49.16236950241284 109.2793741007207, 30.896157163092383 93.40079796401433, 0.2594292019065776 66.76869665727195 M73.0716562785864 124.76334803249803 C49.56068254475296 104.32557037253096, 26.049708810919512 83.88779271256391, -0.13517300302248003 61.12562222041882 M73.0716562785864 124.76334803249803 C55.68039940859154 109.64535908145615, 38.28914253859667 94.52737013041427, -0.13517300302248003 61.12562222041882 M79.4694402956623 125.02480485655947 C54.042852036234606 102.9218088947252, 28.61626377680691 80.81881293289094, 0.2249343722712318 56.13860681255621 M79.4694402956623 125.02480485655947 C54.54598289965085 103.35917388167897, 29.622525503639416 81.69354290679848, 0.2249343722712318 56.13860681255621 M85.11251473251542 124.63020265163043 C52.730992897061995 96.4813751697642, 20.34947106160857 68.33254768789797, -0.1696678326578258 50.4955323757031 M85.11251473251542 124.63020265163043 C63.033718181444875 105.43739762284216, 40.95492163037433 86.24459259405388, -0.1696678326578258 50.4955323757031 M91.5102987495913 124.89165947569187 C62.55666838994711 99.72265259241992, 33.603038030302926 74.55364570914796, 0.19043954263588603 45.50851696784049 M91.5102987495913 124.89165947569187 C66.46539179871625 103.12045401345476, 41.420484847841216 81.34924855121767, 0.19043954263588603 45.50851696784049 M97.90808276666719 125.15311629975331 C75.04854705093781 105.2816250694334, 52.189011335208434 85.41013383911348, -0.2041626622931716 39.865442530987366 M97.90808276666719 125.15311629975331 C67.9471805357399 99.10850133739962, 37.986278304812615 73.06388637504594, -0.2041626622931716 39.865442530987366 M103.5511572035203 124.75851409482425 C71.03577249054797 96.49332138884492, 38.52038777757562 68.22812868286559, 0.15594471300054025 34.87842712312476 M103.5511572035203 124.75851409482425 C69.22620227042296 94.92028599534308, 34.90124733732563 65.08205789586191, 0.15594471300054025 34.87842712312476 M109.9489412205962 125.0199709188857 C83.32328167632492 101.87463819144065, 56.697622132053645 78.72930546399559, -0.23865749192851915 29.235352686271643 M109.9489412205962 125.0199709188857 C81.02367193692827 99.8756179428301, 52.098402653260344 74.73126496677452, -0.23865749192851915 29.235352686271643 M115.59201565744932 124.62536871395665 C70.09328889151126 85.07392894880252, 24.59456212557319 45.522489183648375, 0.12144988336519447 24.248337278409032 M115.59201565744932 124.62536871395665 C89.27983350615034 101.75253772682761, 62.96765135485136 78.87970673969858, 0.12144988336519447 24.248337278409032 M121.98979967452519 124.88682553801809 C90.58580393773207 97.5877485295865, 59.181808200938946 70.28867152115492, -0.27315232156386493 18.605262841555916 M121.98979967452519 124.88682553801809 C88.3466005472605 95.64123871897644, 54.703401419995814 66.3956518999348, -0.27315232156386493 18.605262841555916 M128.38758369160107 125.14828236207954 C99.23167645900529 99.80343887578383, 70.0757692264095 74.4585953894881, 0.08695505372984869 13.618247433693305 M128.38758369160107 125.14828236207954 C94.83847333529184 95.98448566380691, 61.28936297898262 66.82068896553427, 0.08695505372984869 13.618247433693305 M131.7665293877859 122.78550307017896 C102.64550376916237 97.47098170830296, 73.52447815053884 72.15646034642694, -0.30764715119921027 7.975172996840188 M131.7665293877859 122.78550307017896 C85.85670071343476 82.87669786815039, 39.946872039083615 42.96789266612183, -0.30764715119921027 7.975172996840188 M132.1266367630796 117.79848766231635 C95.63600240110189 86.07766315694803, 59.14536803912418 54.35683865157973, 0.05246022409450246 2.988157588977579 M132.1266367630796 117.79848766231635 C93.59121574615861 84.30015723614224, 55.05579472923762 50.801826809968134, 0.05246022409450246 2.988157588977579 M131.73203455815053 112.15541322546323 C84.07442648362215 70.7272865702322, 36.416818409093764 29.29915991500114, 1.1672771796109875 -1.342798789894524 M131.73203455815053 112.15541322546323 C86.89100233086234 73.1756986002916, 42.049970103574154 34.19598397511996, 1.1672771796109875 -1.342798789894524 M132.09214193344428 107.16839781760063 C83.0361414093963 64.52466715173986, 33.98014088534832 21.88093648587909, 7.565061196686877 -1.0813419658330754 M132.09214193344428 107.16839781760063 C90.1230248450415 70.68520093479573, 48.153907756638716 34.202004051990826, 7.565061196686877 -1.0813419658330754 M131.6975397285152 101.52532338074751 C106.39816538154112 79.53291278587487, 81.09879103456703 57.54050219100223, 13.208135633539994 -1.4759441707621352 M131.6975397285152 101.52532338074751 C86.00011605498172 61.801159028975576, 40.302692381448225 22.076994677203643, 13.208135633539994 -1.4759441707621352 M132.0576471038089 96.5383079728849 C106.9130564953197 74.6804488291068, 81.7684658868305 52.82258968532869, 19.60591965061588 -1.214487346700686 M132.0576471038089 96.5383079728849 C89.89445924686615 59.8864079447904, 47.73127138992341 23.234507916695904, 19.60591965061588 -1.214487346700686 M131.66304489887986 90.89523353603178 C91.25501388547404 55.76906807481132, 50.846982872068224 20.642902613590863, 25.248994087469 -1.6090895516297454 M131.66304489887986 90.89523353603178 C104.35053331052899 67.15282943582638, 77.03802172217813 43.410425335620964, 25.248994087469 -1.6090895516297454 M132.02315227417355 85.90821812816917 C91.94114364078048 51.06545959812507, 51.85913500738741 16.222701068080966, 31.646778104544893 -1.347632727568298 M132.02315227417355 85.90821812816917 C97.63603062278042 56.015949324939896, 63.248908971387294 26.123680521710625, 31.646778104544893 -1.347632727568298 M131.6285500692445 80.26514369131606 C97.19123753051707 50.32924461536784, 62.75392499178963 20.393345539419634, 38.04456212162078 -1.0861759035068452 M131.6285500692445 80.26514369131606 C94.3657700521845 47.873103208322284, 57.10299003512449 15.481062725328513, 38.04456212162078 -1.0861759035068452 M131.9886574445382 75.27812828345344 C101.45965311058737 48.73966969721587, 70.93064877663653 22.201211110978292, 43.6876365584739 -1.4807781084359064 M131.9886574445382 75.27812828345344 C102.28642534724654 49.45837183773834, 72.58419324995486 23.63861539202324, 43.6876365584739 -1.4807781084359064 M131.59405523960916 69.63505384660033 C101.16999993408521 43.187826058920955, 70.74594462856126 16.74059827124158, 50.08542057554979 -1.219321284374459 M131.59405523960916 69.63505384660033 C106.21829094641902 47.57623848457958, 80.84252665322887 25.517423122558824, 50.08542057554979 -1.219321284374459 M131.95416261490288 64.64803843873771 C110.75209489705723 46.21736215733294, 89.55002717921158 27.786685875928164, 55.7284950124029 -1.6139234893035166 M131.95416261490288 64.64803843873771 C115.78410425201575 50.59162115416557, 99.61404588912862 36.53520386959343, 55.7284950124029 -1.6139234893035166 M131.5595604099738 59.0049640018846 C112.03793123058495 42.03507065567558, 92.51630205119608 25.06517730946657, 62.126279029478795 -1.3524666652420692 M131.5595604099738 59.0049640018846 C106.79862928824812 37.480614961787396, 82.03769816652245 15.956265921690196, 62.126279029478795 -1.3524666652420692 M131.91966778526754 54.017948594021995 C119.08473085624355 42.86070814091372, 106.24979392721959 31.70346768780545, 68.52406304655469 -1.0910098411806217 M131.91966778526754 54.017948594021995 C107.5094891167923 32.79850400979191, 83.09931044831706 11.579059425561823, 68.52406304655469 -1.0910098411806217 M131.52506558033846 48.374874157168875 C116.1595427133217 35.01782890925924, 100.79401984630493 21.6607836613496, 74.1671374834078 -1.4856120461096793 M131.52506558033846 48.374874157168875 C111.22530759034713 30.728563755590418, 90.9255496003558 13.08225335401196, 74.1671374834078 -1.4856120461096793 M131.88517295563219 43.38785874930626 C115.70910385319678 29.326216408560335, 99.53303475076137 15.264574067814404, 80.56492150048369 -1.224155222048232 M131.88517295563219 43.38785874930626 C120.09850063181871 33.14186081522964, 108.31182830800523 22.895862881153025, 80.56492150048369 -1.224155222048232 M132.2452803309259 38.400843341443654 C123.02389049802944 30.384811455473375, 113.80250066513298 22.368779569503094, 86.2079959373368 -1.6187574269772895 M132.2452803309259 38.400843341443654 C114.63734911377428 23.09450225399341, 97.02941789662265 7.788161166543169, 86.2079959373368 -1.6187574269772895 M131.85067812599684 32.75776890459053 C123.86320220425374 25.814362017192813, 115.87572628251064 18.8709551297951, 92.6057799544127 -1.357300602915842 M131.85067812599684 32.75776890459053 C120.86442937320717 23.20756856544042, 109.87818062041751 13.657368226290306, 92.6057799544127 -1.357300602915842 M132.21078550129056 27.77075349672792 C124.37819379923194 20.961985407398934, 116.5456020971733 14.153217318069947, 99.00356397148857 -1.0958437788543947 M132.21078550129056 27.77075349672792 C119.56182499920924 16.775179885107352, 106.91286449712791 5.779606273486785, 99.00356397148857 -1.0958437788543947 M131.8161832963615 22.127679059874808 C125.15332914615912 16.335748311100083, 118.49047499595675 10.543817562325355, 104.6466384083417 -1.4904459837834594 M131.8161832963615 22.127679059874808 C125.58970643748518 16.715085303133993, 119.36322957860887 11.302491546393178, 104.6466384083417 -1.4904459837834594 M132.1762906716552 17.1406636520122 C127.47050784820696 13.04998905254524, 122.76472502475872 8.959314453078278, 111.0444224254176 -1.2289891597220048 M132.1762906716552 17.1406636520122 C124.83870922036365 10.762201408758116, 117.50112776907211 4.38373916550403, 111.0444224254176 -1.2289891597220048 M131.78168846672614 11.497589215159081 C128.63127349394637 8.758975260703956, 125.4808585211666 6.020361306248829, 116.6874968622707 -1.6235913646510625 M131.78168846672614 11.497589215159081 C126.79991551312784 7.167000055784512, 121.81814255952955 2.8364108964099426, 116.6874968622707 -1.6235913646510625 M132.14179584201986 6.510573807296467 C129.42961773527216 4.1529133485051775, 126.71743962852447 1.795252889713888, 123.0852808793466 -1.362134540589615 M132.14179584201986 6.510573807296467 C129.07345687032057 3.843307432073605, 126.0051178986213 1.1760410568507433, 123.0852808793466 -1.362134540589615" stroke="#7950f2" stroke-width="0.5" fill="none"></path><path d="M0 0 C41.61148912132485 0, 83.2229782426497 0, 130.1875 0 M0 0 C45.679870757192845 0, 91.35974151438569 0, 130.1875 0 M130.1875 0 C130.1875 29.466454703913772, 130.1875 58.932909407827545, 130.1875 124.84375 M130.1875 0 C130.1875 35.48946018508286, 130.1875 70.97892037016572, 130.1875 124.84375 M130.1875 124.84375 C85.11164637162582 124.84375, 40.03579274325165 124.84375, 0 124.84375 M130.1875 124.84375 C97.71413021635962 124.84375, 65.24076043271924 124.84375, 0 124.84375 M0 124.84375 C0 90.54539911207394, 0 56.24704822414786, 0 0 M0 124.84375 C0 76.32935882927268, 0 27.814967658545342, 0 0" stroke="#000000" stroke-width="1" fill="none"></path></g><g><g stroke-opacity="0.5" fill-opacity="0.5" transform="translate(118.81336724364223 350.28515625) rotate(0 69.23003512817888 -112.07635951041084)"><path d="M0 0 C54.0727026699321 -87.53818559985294, 108.1454053398642 -175.07637119970587, 138.46007025635777 -224.15271902082168 M0 0 C29.93488019130243 -48.46151512143168, 59.86976038260486 -96.92303024286336, 138.46007025635777 -224.15271902082168" stroke="#000000" stroke-width="1" fill="none"></path></g><g stroke-opacity="0.5" fill-opacity="0.5" transform="translate(118.81336724364223 350.28515625) rotate(0 69.23003512817888 -112.07635951041084)"><path d="M-12.7616440715404 -7.88292081599947 C-7.777849218755253 -4.804409930767665, -2.794054365970105 -1.7258990455358605, 0 0 M-12.7616440715404 -7.88292081599947 C-10.002593858592343 -6.178643981908865, -7.243543645644286 -4.47436714781826, 0 0" stroke="#000000" stroke-width="1" fill="none"></path></g><g stroke-opacity="0.5" fill-opacity="0.5" transform="translate(118.81336724364223 350.28515625) rotate(0 69.23003512817888 -112.07635951041084)"><path d="M12.7616440715404 7.882920815999468 C7.777849218755253 4.8044099307676635, 2.794054365970105 1.7258990455358596, 0 0 M12.7616440715404 7.882920815999468 C10.002593858592343 6.178643981908864, 7.243543645644286 4.47436714781826, 0 0" stroke="#000000" stroke-width="1" fill="none"></path></g><g stroke-opacity="0.5" fill-opacity="0.5" transform="translate(118.81336724364223 350.28515625) rotate(0 69.23003512817888 -112.07635951041084)"><path d="M132.37450388312794 -194.7764380799501 C134.75109534714016 -206.24873404168932, 137.1276868111524 -217.72103000342855, 138.46007025635777 -224.15271902082168 M132.37450388312794 -194.7764380799501 C133.69019511412014 -201.12755034504482, 135.00588634511234 -207.47866261013957, 138.46007025635777 -224.15271902082168" stroke="#000000" stroke-width="1" fill="none"></path></g><g stroke-opacity="0.5" fill-opacity="0.5" transform="translate(118.81336724364223 350.28515625) rotate(0 69.23003512817888 -112.07635951041084)"><path d="M114.91554654545027 -205.56090890920225 C124.11037092888373 -212.82155393415502, 133.30519531231718 -220.08219895910779, 138.46007025635777 -224.15271902082168 M114.91554654545027 -205.56090890920225 C120.00584077354331 -209.58043314604785, 125.09613500163636 -213.59995738289342, 138.46007025635777 -224.15271902082168" stroke="#000000" stroke-width="1" fill="none"></path></g></g><g><g stroke-opacity="0.5" fill-opacity="0.5" transform="translate(417.7661479994706 139.99225713761484) rotate(0 55.629856933469966 103.53512143119258)"><path d="M0 0 C28.922624520440664 53.829141524017686, 57.84524904088133 107.65828304803537, 111.25971386693993 207.0702428623851 M0 0 C39.43656216615271 73.3970834687658, 78.87312433230542 146.7941669375316, 111.25971386693993 207.0702428623851" stroke="#000000" stroke-width="1" fill="none"></path></g><g stroke-opacity="0.5" fill-opacity="0.5" transform="translate(417.7661479994706 139.99225713761484) rotate(0 55.629856933469966 103.53512143119258)"><path d="M22.381486109785392 19.976713431330086 C16.563285644728012 14.783647930390604, 10.74508517967063 9.590582429451121, 0 0 M22.381486109785392 19.976713431330086 C14.448256392917425 12.895867420416877, 6.515026676049457 5.815021409503666, 0 0" stroke="#000000" stroke-width="1" fill="none"></path></g><g stroke-opacity="0.5" fill-opacity="0.5" transform="translate(417.7661479994706 139.99225713761484) rotate(0 55.629856933469966 103.53512143119258)"><path d="M4.304429187228044 29.6895922735921 C3.185467212313103 21.97160613423319, 2.0665052373981627 14.253619994874285, 0 0 M4.304429187228044 29.6895922735921 C2.778702728548362 19.165967767551074, 1.2529762698686806 8.642343261510042, 0 0" stroke="#000000" stroke-width="1" fill="none"></path></g><g stroke-opacity="0.5" fill-opacity="0.5" transform="translate(417.7661479994706 139.99225713761484) rotate(0 55.629856933469966 103.53512143119258)"><path d="M88.87822775715455 187.093529431055 C94.69642822221192 192.2865949319945, 100.51462868726931 197.47966043293397, 111.25971386693993 207.0702428623851 M88.87822775715455 187.093529431055 C96.81145747402252 194.1743754419682, 104.74468719089047 201.25522145288144, 111.25971386693993 207.0702428623851" stroke="#000000" stroke-width="1" fill="none"></path></g><g stroke-opacity="0.5" fill-opacity="0.5" transform="translate(417.7661479994706 139.99225713761484) rotate(0 55.629856933469966 103.53512143119258)"><path d="M106.9552846797119 177.380650588793 C108.07424665462683 185.09863672815192, 109.19320862954177 192.81662286751083, 111.25971386693993 207.0702428623851 M106.9552846797119 177.380650588793 C108.48101113839158 187.90427509483402, 110.00673759707125 198.42789960087507, 111.25971386693993 207.0702428623851" stroke="#000000" stroke-width="1" fill="none"></path></g></g><g><g stroke-opacity="0.5" fill-opacity="0.5" transform="translate(494.26171875 470.90158765067474) rotate(0 -162.345703125 -1.322254391387503)"><path d="M0 0 C-73.96242263523382 -0.602400533211503, -147.92484527046764 -1.204801066423006, -324.69140625 -2.644508782775006 M0 0 C-109.65736445216244 -0.8931245416653317, -219.31472890432488 -1.7862490833306635, -324.69140625 -2.644508782775006" stroke="#000000" stroke-width="1" fill="none"></path></g><g stroke-opacity="0.5" fill-opacity="0.5" transform="translate(494.26171875 470.90158765067474) rotate(0 -162.345703125 -1.322254391387503)"><path d="M-0.12216620258522445 14.999502505714847 C-0.09433759938408887 11.58272114873697, -0.06650899618295328 8.165939791759094, 0 0 M-0.12216620258522445 14.999502505714847 C-0.08090726088625651 9.933751207068344, -0.03964831918728856 4.867999908421842, 0 0" stroke="#000000" stroke-width="1" fill="none"></path></g><g stroke-opacity="0.5" fill-opacity="0.5" transform="translate(494.26171875 470.90158765067474) rotate(0 -162.345703125 -1.322254391387503)"><path d="M0.12216620258522262 -14.999502505714847 C0.09433759938408745 -11.58272114873697, 0.06650899618295228 -8.165939791759094, 0 0 M0.12216620258522262 -14.999502505714847 C0.0809072608862553 -9.933751207068344, 0.039648319187287964 -4.867999908421842, 0 0" stroke="#000000" stroke-width="1" fill="none"></path></g><g stroke-opacity="0.5" fill-opacity="0.5" transform="translate(494.26171875 470.90158765067474) rotate(0 -162.345703125 -1.322254391387503)"><path d="M-296.41799600560455 -12.675175418254101 C-302.8584803472973 -10.390259985551781, -309.29896468899005 -8.10534455284946, -324.69140625 -2.644508782775006 M-296.41799600560455 -12.675175418254101 C-305.9667170120607 -9.287538893935475, -315.51543801851693 -5.899902369616848, -324.69140625 -2.644508782775006" stroke="#000000" stroke-width="1" fill="none"></path></g><g stroke-opacity="0.5" fill-opacity="0.5" transform="translate(494.26171875 470.90158765067474) rotate(0 -162.345703125 -1.322254391387503)"><path d="M-296.58512921407555 7.845352569019171 C-302.98754178434666 5.4558358040173065, -309.3899543546178 3.0663190390154424, -324.69140625 -2.644508782775006 M-296.58512921407555 7.845352569019171 C-306.07740466391834 4.302633152476722, -315.56968011376114 0.7599137359342727, -324.69140625 -2.644508782775006" stroke="#000000" stroke-width="1" fill="none"></path></g></g><g transform="translate(29.62890625 399.76953125) rotate(0 57 25)"><text x="0" y="18" font-family="Virgil, Segoe UI Emoji" font-size="20px" fill="#000000" text-anchor="start" style="white-space: pre;" direction="ltr">Freshworks'</text><text x="0" y="43" font-family="Virgil, Segoe UI Emoji" font-size="20px" fill="#000000" text-anchor="start" style="white-space: pre;" direction="ltr">Product</text></g><g transform="translate(311.9921875 59.15625) rotate(0 16.5 12.5)"><text x="0" y="18" font-family="Virgil, Segoe UI Emoji" font-size="20px" fill="#000000" text-anchor="start" style="white-space: pre;" direction="ltr">App</text></g><g transform="translate(537.41015625 410.58203125) rotate(0 43 12.5)"><text x="0" y="18" font-family="Virgil, Segoe UI Emoji" font-size="20px" fill="#000000" text-anchor="start" style="white-space: pre;" direction="ltr">Platform</text></g><g transform="translate(10 231.9935302734375) rotate(0 73.5 25)"><text x="0" y="18" font-family="Virgil, Segoe UI Emoji" font-size="20px" fill="#000000" text-anchor="start" style="white-space: pre;" direction="ltr">"hey, someone </text><text x="0" y="43" font-family="Virgil, Segoe UI Emoji" font-size="20px" fill="#000000" text-anchor="start" style="white-space: pre;" direction="ltr">dropped money"</text></g><g transform="translate(488.88671875 180.4974365234375) rotate(0 148.5 37.5)"><text x="0" y="18" font-family="Virgil, Segoe UI Emoji" font-size="20px" fill="#000000" text-anchor="start" style="white-space: pre;" direction="ltr">"shall we report, not care,</text><text x="0" y="43" font-family="Virgil, Segoe UI Emoji" font-size="20px" fill="#000000" text-anchor="start" style="white-space: pre;" direction="ltr">spend, remind or do something </text><text x="0" y="68" font-family="Virgil, Segoe UI Emoji" font-size="20px" fill="#000000" text-anchor="start" style="white-space: pre;" direction="ltr">about it?"</text></g><g transform="translate(191.17578125 503.8529052734375) rotate(0 137.5 12.5)"><text x="0" y="18" font-family="Virgil, Segoe UI Emoji" font-size="20px" fill="#000000" text-anchor="start" style="white-space: pre;" direction="ltr">"do what's is asked by app"</text></g><g transform="translate(180.40625 117.0950927734375) rotate(0 17.5 12.5)"><text x="0" y="18" font-family="Virgil, Segoe UI Emoji" font-size="20px" fill="#000000" text-anchor="start" style="white-space: pre;" direction="ltr">"...."</text></g></svg>
